<svg width="72" height="72" viewBox="0 0 72 72" fill="none" xmlns="http://www.w3.org/2000/svg">
<g clip-path="url(#clip0_2590_354)">
<path d="M55.0484 0H16.8516C7.5447 0 0 7.5447 0 16.8516V55.0484C0 64.3553 7.5447 71.9 16.8516 71.9H55.0484C64.3553 71.9 71.9 64.3553 71.9 55.0484V16.8516C71.9 7.5447 64.3553 0 55.0484 0Z" fill="#0277BD"/>
<path d="M15.097 28.8297L15.9008 37.8009H35.9769V28.8297H15.097ZM35.9766 10.6719H13.4812L14.2968 19.6431H35.9766V10.6719ZM35.9766 61.4628V52.129L35.9373 52.1394L25.946 49.4417L25.3073 42.2865H16.3016L17.5584 56.3728L35.9353 61.4743L35.9766 61.4628Z" fill="#EBEBEB"/>
<path d="M46.9928 37.8009L45.9514 49.4358L35.9458 52.1365V61.4698L54.3373 56.3728L54.4721 54.857L56.5803 31.2389L56.799 28.8297L58.4188 10.6719H35.9458V19.6431H48.587L47.7708 28.8297H35.9458V37.8009H46.9928Z" fill="white"/>
</g>
<defs>
<clipPath id="clip0_2590_354">
<rect width="71.9" height="71.9" fill="white"/>
</clipPath>
</defs>
</svg>
