<svg width="72" height="72" viewBox="0 0 72 72" fill="none" xmlns="http://www.w3.org/2000/svg">
<path fill-rule="evenodd" clip-rule="evenodd" d="M16.8516 0H55.0484C64.3553 0 71.9 7.5447 71.9 16.8516V55.0484C71.9 64.3553 64.3553 71.9 55.0484 71.9H16.8516C7.5447 71.9 0 64.3553 0 55.0484V16.8516C0 7.5447 7.5447 0 16.8516 0ZM15.0972 28.8297L15.901 37.8009H35.9458H35.9772H46.9928L45.9514 49.4358L35.9458 52.1365V52.1372L35.9376 52.1394L25.9463 49.4417L25.3076 42.2865H16.3018L17.5587 56.3728L35.9356 61.4743L35.9769 61.4628V61.4612L54.3373 56.3728L54.4721 54.857L56.5803 31.2389L56.799 28.8297L58.4188 10.6719H35.9769H35.9458H13.4814L14.2971 19.6431H35.9458H35.9769H48.587L47.7708 28.8297H35.9772H35.9458H15.0972Z" fill="#0277BD"/>
</svg>
