<svg width="72" height="72" viewBox="0 0 72 72" fill="none" xmlns="http://www.w3.org/2000/svg">
<path fill-rule="evenodd" clip-rule="evenodd" d="M16.8516 0H55.0484C64.3553 0 71.9 7.5447 71.9 16.8516V55.0484C71.9 64.3553 64.3553 71.9 55.0484 71.9H16.8516C7.5447 71.9 0 64.3553 0 55.0484V16.8516C0 7.5447 7.5447 0 16.8516 0ZM13.4814 10.6719L15.8996 37.8009H35.9502H46.9936L45.9502 49.4369L35.9502 52.1407V52.1399L35.9387 52.1439L25.946 49.4409L25.2778 41.9694H16.2732L17.5609 56.3722L35.9367 61.476L54.3358 56.3722L56.8026 28.8308H35.9502H24.1047L23.2837 19.6439H35.9502H57.6154L58.4189 10.6719H35.9502H13.4814Z" fill="#E14E1D"/>
</svg>
