<svg width="72" height="72" viewBox="0 0 72 72" fill="none" xmlns="http://www.w3.org/2000/svg">
<g clip-path="url(#clip0_2590_349)">
<path d="M55.0484 0H16.8516C7.5447 0 0 7.5447 0 16.8516V55.0484C0 64.3553 7.5447 71.9 16.8516 71.9H55.0484C64.3553 71.9 71.9 64.3553 71.9 55.0484V16.8516C71.9 7.5447 64.3553 0 55.0484 0Z" fill="#E14E1D"/>
<path d="M13.4812 10.6719L15.8994 37.8009H46.9933L45.9499 49.4369L35.9384 52.1439L25.9457 49.4409L25.2776 41.9694H16.2729L17.5607 56.3722L35.9365 61.476L54.3356 56.3722L56.8024 28.8308H24.1044L23.2835 19.6439H57.6152L58.4187 10.6719H13.4812Z" fill="white"/>
<path d="M35.95 10.6719H13.4812L15.8994 37.8009H35.95V28.8308H24.1044L23.2835 19.6439H35.95V10.6719ZM35.95 52.1399L35.9384 52.1439L25.9457 49.4409L25.2776 41.9694H16.2729L17.5607 56.3722L35.9365 61.476L35.9502 61.472L35.95 52.1399Z" fill="#EBEBEB"/>
</g>
<defs>
<clipPath id="clip0_2590_349">
<rect width="71.9" height="71.9" fill="white"/>
</clipPath>
</defs>
</svg>
