<svg width="72" height="73" viewBox="0 0 72 73" fill="none" xmlns="http://www.w3.org/2000/svg">
<path fill-rule="evenodd" clip-rule="evenodd" d="M10.2193 2.04381C8.5539 2.81668 6.10128 4.59711 4.76974 6.00131C0.0257373 11.0012 0 11.2018 0 43.3508V72.5189H29.168C61.3171 72.5189 61.5177 72.4931 66.5175 67.7491C71.7218 62.8113 71.88 61.8931 71.88 36.5622C71.88 11.2313 71.7218 10.3131 66.5175 5.37528C61.6494 0.756179 60.6646 0.604026 35.7916 0.622193C15.444 0.637333 12.952 0.775861 10.2193 2.04381ZM44.1305 10.712C46.4552 11.6832 51.4748 16.615 51.4748 17.9276C51.4748 18.2659 52.8586 19.1675 54.5504 19.9298C61.9666 23.2741 65.0142 32.7084 60.7713 39.1904C59.9863 40.3903 59.6063 42.3804 59.7138 44.7353C60.0643 52.4081 54.4066 58.7062 46.7664 59.1498C44.7551 59.2671 42.4622 60.0355 40.9845 61.0877C38.1913 63.0763 33.9045 63.8575 29.9038 63.1073C27.0508 62.5721 21.5732 58.2475 20.8458 55.9553C20.6179 55.2369 18.9117 53.9107 17.0541 53.0084C10.298 49.7261 7.4911 41.3463 10.8619 34.5236C11.6522 32.9241 12.2957 29.8243 12.3668 27.2763C12.4599 23.913 12.9505 22.1523 14.3698 20.0819C16.7581 16.5975 21.2349 14.0692 25.3203 13.8966C27.1143 13.8217 29.4708 13.0859 30.7168 12.2123C31.9333 11.36 33.4397 10.4705 34.0642 10.2359C36.2065 9.43044 41.684 9.69008 44.1305 10.712ZM36.454 13.5265C31.844 14.5151 32.1483 15.3667 38.3684 18.8738L44.2835 22.2098L44.4992 29.9802L44.7157 37.7514L47.0313 36.4002L49.3469 35.0482L49.0593 27.4784C48.8405 21.7185 48.4355 19.4037 47.3666 17.7958C45.0631 14.3334 40.6832 12.6196 36.454 13.5265ZM21.3999 18.3416C18.5438 19.6293 15.9034 23.561 15.8997 26.5322C15.8981 27.6775 16.0927 28.6139 16.3326 28.6139C16.5719 28.6139 19.1009 27.2513 21.9525 25.586C24.804 23.9206 27.4179 22.5603 27.7616 22.5633C28.106 22.5671 31.0658 24.1 34.3405 25.9697C37.6152 27.8402 40.4251 29.3709 40.5856 29.3709C40.7461 29.3709 40.877 28.2467 40.877 26.8721C40.877 24.5527 40.4668 24.1394 35.1527 21.116C28.7419 17.4688 25.0069 16.7156 21.3999 18.3416ZM52.2318 30.0665V36.8188L45.6884 40.5757L39.1443 44.3326L41.1405 45.6399C43.447 47.1516 43.746 47.0684 50.8147 42.9398C59.8849 37.6424 61.6146 31.4124 55.7903 25.0182C52.8744 21.8169 52.2318 22.7283 52.2318 30.0665ZM21.7216 29.8129C13.6249 34.5305 11.46 38.4221 13.6764 44.2721C14.6612 46.8723 17.3145 49.8094 18.6778 49.8094C19.4363 49.8094 19.6815 48.1584 19.6815 43.0465V36.2829L26.1106 32.638C29.6472 30.6328 32.5427 28.7918 32.5449 28.5465C32.5502 28.0742 29.0658 26.3331 28.162 26.3566C27.8691 26.3641 24.9713 27.9197 21.7216 29.8129ZM33.118 32.0748C31.3247 33.0475 31.0363 33.6743 31.0363 36.5985C31.0363 39.7158 31.2467 40.0935 33.6191 41.2252C36.0543 42.3857 36.3473 42.372 38.7287 40.986C40.7612 39.8036 41.3009 38.9709 41.4894 36.7302C41.6953 34.2784 41.4236 33.7621 39.2185 32.4177C36.264 30.6161 35.8492 30.5934 33.118 32.0748ZM24.7927 36.9081C22.8079 38.0224 22.7117 38.3411 22.711 43.8481C22.7102 47.0229 22.9123 50.6345 23.1606 51.8752C24.2068 57.1067 30.062 60.8091 35.3904 59.607C39.9232 58.5851 39.8014 57.7577 34.6872 54.8479C32.0544 53.3498 29.3898 51.7866 28.7653 51.3748C27.9326 50.826 27.5292 48.6436 27.2514 43.1828L26.8729 35.7394L24.7927 36.9081ZM31.0454 46.2137C31.0544 48.4733 31.5139 48.9396 36.6788 51.9312C39.7718 53.723 43.4455 55.3747 44.8429 55.6011C50.1819 56.4678 56.0068 51.77 56.0137 46.5922C56.0152 45.4469 55.8206 44.5105 55.5814 44.5105C55.3415 44.5105 52.8525 45.8731 50.0494 47.5384C47.2463 49.2038 44.6241 50.5664 44.2237 50.5664C43.8225 50.5664 40.8763 49.0335 37.6758 47.1599C34.4752 45.2864 31.6721 43.7535 31.4466 43.7535C31.221 43.7535 31.0408 44.8602 31.0454 46.2137Z" fill="#74AA9C"/>
</svg>
