<svg width="87" height="72" viewBox="0 0 87 72" fill="none" xmlns="http://www.w3.org/2000/svg">
<path fill-rule="evenodd" clip-rule="evenodd" d="M13.1031 0.325477C12.6184 0.664959 12.4511 1.81134 12.8289 2.20538C13.2668 2.66213 16.2323 8.89696 17.3226 11.653C21.032 21.0299 21.8352 28.672 20.0477 37.5786C18.8313 43.6386 16.2327 49.4288 13.1932 52.851C12.1474 54.0286 12.0381 54.4153 12.5458 55.14C13.0095 55.8021 13.747 55.7235 15.1674 54.8605C18.6166 52.7653 24.291 50.6145 28.7437 49.7148C30.8245 49.2944 31.7416 49.2319 35.7374 49.2378C39.5706 49.2434 40.7713 49.3229 42.9493 49.7144C46.2254 50.3037 49.552 51.18 52.6036 52.2574C55.2166 53.1801 55.7242 53.252 56.2085 52.7678C56.7836 52.1926 56.5093 50.001 55.364 46.0209C50.0385 27.5131 35.2547 10.4326 16.6338 1.27368C15.2098 0.573189 13.9372 0 13.8061 0C13.6749 0 13.3586 0.146539 13.1031 0.325477ZM19.5017 5.67231C22.3513 7.31098 25.8644 9.70072 29.0481 12.1661C32.2431 14.6403 38.54 20.9218 40.9509 24.0396C46.4329 31.1297 50.7059 39.1606 52.7401 46.1979C53.4993 48.8245 53.6954 49.7516 53.4918 49.7516C53.4084 49.7516 52.4479 49.4658 51.3575 49.1165C49.1321 48.4037 44.7928 47.4076 42.1131 46.9944C39.3375 46.5665 30.9865 46.6323 28.6631 47.1005C26.0365 47.6296 22.1354 48.7819 20.0562 49.6425C19.0779 50.0474 18.2248 50.3787 18.1602 50.3787C18.0956 50.3787 18.3225 49.8848 18.6642 49.2813C21.6117 44.0762 23.5085 35.9351 23.5085 28.4903C23.5085 22.208 21.887 15.5522 18.4519 7.73449C17.7698 6.18237 17.1604 4.79497 17.0977 4.65115C16.91 4.22115 17.1717 4.33215 19.5017 5.67231ZM35.8942 9.09263C35.5635 9.3301 35.4238 9.64345 35.4238 10.1477C35.4238 10.7486 35.5509 10.9456 36.2077 11.3624C39.1151 13.2078 43.9192 17.5916 46.3207 20.5905C51.4085 26.944 56.9199 38.1106 60.0942 48.4974C60.4631 49.7046 60.891 50.8256 61.0453 50.9887C61.2813 51.2383 61.6816 51.2473 63.5824 51.0458C66.1958 50.7686 66.6361 50.8405 69.96 52.0864C71.8652 52.8002 72.3257 52.9039 72.7455 52.7124C73.5733 52.3353 73.5802 51.6442 72.777 49.5039C69.7499 41.4362 65.0697 32.867 60.7696 27.5197C57.3156 23.2246 51.2085 17.2638 46.9267 14.0084C42.1451 10.373 37.1871 8.16365 35.8942 9.09263ZM49.3762 19.4012C51.3878 21.199 56.1818 26.0537 57.8783 28.0114C60.6082 31.1612 64.1594 36.7792 66.6655 41.9126C67.8278 44.2933 69.9155 48.9919 69.9155 49.2271C69.9155 49.2733 69.3747 49.1111 68.7135 48.8667C67.7649 48.5162 67.0149 48.4194 65.1548 48.4077L62.7981 48.3928L61.7832 45.3618C58.2239 34.7314 52.4334 23.6172 47.5946 18.1284C46.6366 17.0416 47.1318 17.3953 49.3762 19.4012ZM77.0229 54.2723C76.7354 54.3097 74.1956 54.4841 71.3788 54.6597C64.9247 55.0621 58.8255 55.4521 30.5114 57.2727C17.9794 58.0785 7.51696 58.8292 7.26151 58.941C6.35804 59.3361 6.44709 60.0232 7.7053 62.3693C8.34914 63.5692 8.87467 64.6311 8.87363 64.7291C8.86903 65.1125 3.11687 68.7563 2.19228 68.9614C1.19139 69.1834 0.723145 69.6259 0.723145 70.3496C0.723145 71.4765 2.35784 71.8317 4.03685 71.0697C4.53729 70.8427 6.12976 69.8441 7.57549 68.8508C9.02142 67.8574 10.7023 66.8168 11.311 66.5382C12.3619 66.057 12.4522 66.0482 13.1029 66.3632C13.4798 66.5457 14.7947 67.483 16.0251 68.4463C19.3434 71.044 21.4721 71.8994 23.907 71.6132C25.4777 71.4287 26.7871 70.7865 29.1526 69.041C31.7447 67.1283 32.3785 66.8143 33.647 66.8143C34.9416 66.8143 35.4615 67.0854 37.8278 68.9963C40.5002 71.154 41.5312 71.5963 43.89 71.5963C46.194 71.5963 46.9949 71.2524 49.6156 69.1376C51.9918 67.2203 52.8045 66.8112 54.2375 66.8112C55.6704 66.8112 56.4832 67.2203 58.8593 69.1376C60.9247 70.8043 62.0493 71.4044 63.6675 71.7036C66.0138 72.1373 68.0015 71.3877 71.1697 68.8742C74.866 65.942 76.4273 66.0103 80.1618 69.2672C82.6218 71.4128 85.157 72.3811 86.3197 71.6191C86.9502 71.206 87.0336 70.2557 86.4819 69.7739C86.2808 69.5981 85.7432 69.3874 85.2873 69.3054C84.1018 69.0924 83.5524 68.7624 81.5889 67.0827C80.6296 66.2622 79.2335 65.296 78.4861 64.9354C77.3103 64.3681 76.9016 64.2799 75.4507 64.2799C73.9817 64.2799 73.6061 64.3633 72.4196 64.9532C71.6748 65.3234 70.3158 66.2399 69.4 66.9895C68.484 67.7393 67.3326 68.5416 66.8416 68.7726C65.7508 69.2852 64.1732 69.3169 63.0057 68.8497L62.1496 68.5073L65.0396 67.0066C70.8716 63.9785 74.0026 62.0039 78.9042 58.2633C81.1945 56.5155 81.739 55.9994 81.7942 55.5251C81.9207 54.4364 81.3784 54.1373 79.3422 54.1728C78.354 54.1899 77.3103 54.2347 77.0229 54.2723ZM75.9777 57.2798C74.5209 58.427 71.208 60.629 68.9748 61.9347C65.5758 63.922 60.5731 66.4748 60.0774 66.4748C59.8552 66.4748 59.2003 66.1349 58.6221 65.7196C57.4607 64.8851 55.4537 64.1741 54.2711 64.1779C52.2681 64.1844 50.8069 64.8855 47.9422 67.2148C45.9812 68.8094 44.8081 69.2975 43.3515 69.1248C42.115 68.9785 41.3587 68.5506 39.0875 66.7125C35.3145 63.6593 32.6754 63.4341 29.2356 65.872C26.0507 68.1292 24.9814 68.7703 24.0573 68.9775C22.1717 69.3999 20.3223 68.6534 17.3419 66.2664C14.6548 64.1145 13.8559 63.6871 12.4505 63.6501L11.2797 63.6193L10.6816 62.52C10.3526 61.9154 10.1645 61.3506 10.2635 61.2651C10.3626 61.1794 24.8359 60.1961 42.4267 59.0796C60.0174 57.9633 74.645 57.021 74.9325 56.9859C75.2199 56.9505 75.6902 56.9096 75.9777 56.8949L76.5003 56.8682L75.9777 57.2798Z" fill="black"/>
</svg>
