<svg width="148" height="148" viewBox="0 0 148 148" fill="none" xmlns="http://www.w3.org/2000/svg">
<path fill-rule="evenodd" clip-rule="evenodd" d="M20.9329 3.53535C17.5216 5.11849 12.4977 8.76547 9.77024 11.6418C0.0527198 21.8834 0 22.2943 0 88.1477V147.895H59.7471C125.6 147.895 126.011 147.842 136.253 138.125C146.913 128.01 147.237 126.129 147.237 74.242C147.237 22.3548 146.913 20.4739 136.253 10.3595C126.281 0.8978 124.264 0.586132 73.3148 0.623346C31.635 0.654358 26.5305 0.938115 20.9329 3.53535ZM90.396 21.2911C95.1579 23.2805 105.44 33.3826 105.44 36.0713C105.44 36.7644 108.274 38.6111 111.74 40.1726C126.931 47.0231 133.174 66.348 124.483 79.6257C122.875 82.0833 122.096 86.1598 122.316 90.9837C123.034 106.7 111.445 119.601 95.7951 120.51C91.6752 120.75 86.9785 122.324 83.9518 124.479C78.2301 128.553 69.4492 130.153 61.2543 128.616C55.4102 127.52 44.1901 118.662 42.7 113.966C42.2333 112.495 38.7383 109.778 34.9331 107.93C21.0942 101.207 15.3446 84.0417 22.2493 70.0663C23.8682 66.7899 25.1862 60.4403 25.3319 55.221C25.5226 48.3318 26.5274 44.7251 29.4348 40.4842C34.3269 33.3469 43.497 28.1679 51.8655 27.8144C55.5404 27.6609 60.3674 26.1537 62.9196 24.3644C65.4114 22.6184 68.4971 20.7965 69.7763 20.3158C74.1645 18.666 85.3845 19.1978 90.396 21.2911ZM74.6715 27.0562C65.2285 29.0812 65.8518 30.8256 78.593 38.0095L90.7092 44.8429L91.1511 60.7597L91.5946 76.678L96.3378 73.9102L101.081 71.1409L100.492 55.635C100.044 43.8366 99.2142 39.0949 97.0248 35.8015C92.3063 28.7091 83.3346 25.1986 74.6715 27.0562ZM43.835 36.9194C37.9847 39.557 32.5762 47.6107 32.5685 53.6968C32.5654 56.0428 32.9639 57.9609 33.4554 57.9609C33.9454 57.9609 39.1259 55.1698 44.967 51.7585C50.808 48.3473 56.1622 45.5609 56.8662 45.5671C57.5717 45.5748 63.6345 48.7147 70.3423 52.5447C77.0501 56.3762 82.8059 59.5115 83.1346 59.5115C83.4633 59.5115 83.7316 57.2089 83.7316 54.393C83.7316 49.642 82.8912 48.7954 72.0061 42.6023C58.8742 35.1316 51.2236 33.5888 43.835 36.9194ZM106.99 60.9365V74.7677L93.5871 82.4632L80.1823 90.1588L84.2712 92.8366C88.9958 95.9332 89.6083 95.7626 104.088 87.3057C122.667 76.4547 126.21 63.6934 114.28 50.5956C108.307 44.0382 106.99 45.9051 106.99 60.9365ZM44.494 60.417C27.909 70.0803 23.4743 78.0518 28.0144 90.0347C30.0317 95.361 35.4665 101.377 38.2591 101.377C39.8128 101.377 40.3152 97.9954 40.3152 87.5243V73.6699L53.4843 66.2038C60.7287 62.0963 66.6597 58.3253 66.6643 57.8229C66.6752 56.8553 59.5378 53.289 57.6864 53.337C57.0863 53.3525 51.1507 56.539 44.494 60.417ZM67.8381 65.0502C64.1648 67.0427 63.574 68.3265 63.574 74.3165C63.574 80.7018 64.005 81.4755 68.8646 83.7936C73.8528 86.1707 74.4529 86.1428 79.331 83.3037C83.4944 80.8816 84.5999 79.176 84.986 74.5863C85.4078 69.5639 84.8511 68.5064 80.3343 65.7526C74.2823 62.0622 73.4326 62.0157 67.8381 65.0502ZM50.7848 74.9506C46.7191 77.2331 46.5222 77.8859 46.5207 89.1664C46.5191 95.6696 46.9331 103.067 47.4417 105.609C49.5846 116.325 61.5784 123.909 72.4929 121.446C81.7779 119.353 81.5282 117.658 71.0525 111.698C65.6595 108.629 60.2015 105.427 58.9222 104.584C57.2166 103.46 56.3901 98.9894 55.8211 87.8034L55.0458 72.5565L50.7848 74.9506ZM63.5926 94.012C63.6112 98.6405 64.5524 99.5957 75.132 105.724C81.4677 109.394 88.9927 112.777 91.8551 113.241C102.791 115.016 114.723 105.393 114.737 94.7873C114.74 92.4412 114.342 90.5232 113.852 90.5232C113.36 90.5232 108.262 93.3142 102.52 96.7255C96.7782 100.137 91.407 102.928 90.5867 102.928C89.7649 102.928 83.73 99.7879 77.1742 95.9502C70.6183 92.1125 64.8765 88.9726 64.4144 88.9726C63.9523 88.9726 63.5833 91.2395 63.5926 94.012Z" fill="#74AA9C"/>
</svg>
