<svg width="160" height="160" viewBox="0 0 160 160" fill="none" xmlns="http://www.w3.org/2000/svg">
<g clip-path="url(#clip0_2212_74)">
<rect width="120.877" height="120.877" transform="translate(110.254) rotate(65.7991)" fill="white"/>
<path d="M151.579 91.9498L118.48 18.3038C113.937 8.1949 101.862 3.77148 91.5106 8.42384L18.9196 41.0489C8.56807 45.7012 3.85958 57.6676 8.4029 67.7765L41.5021 141.422C46.0454 151.531 58.1201 155.955 68.4716 151.302L141.063 118.677C151.414 114.025 156.123 102.059 151.579 91.9498Z" fill="#00005B"/>
<path d="M64.3038 73.8903L56.625 56.8049L43.9838 58.3077C43.7739 58.3484 43.5574 58.3204 43.3676 58.2279C43.1779 58.1353 43.0254 57.9835 42.9336 57.7956L39.014 49.0733C38.7922 48.5797 38.9924 48.2821 39.6149 48.181L89.707 43.4482L90.2299 43.3908L90.408 43.3697L90.7789 43.3221C90.9695 43.2955 91.1701 43.2643 91.386 43.2268C92.4835 42.9665 93.5551 42.604 94.5862 42.1442C94.6537 42.1018 94.73 42.0753 94.8091 42.0668C94.8882 42.0583 94.9679 42.068 95.0419 42.0951C95.1159 42.1222 95.1822 42.166 95.2355 42.223C95.2887 42.28 95.3276 42.3487 95.349 42.4236L100.634 54.1837C100.789 54.5282 100.752 54.7817 100.522 54.9457L59.8489 93.4059C59.4103 93.7806 59.0912 93.7464 58.8923 93.3026L54.5708 83.6873C54.4778 83.5306 54.4466 83.3449 54.483 83.165C54.5194 82.985 54.6209 82.8232 54.7686 82.7096L64.3038 73.8903ZM67.1629 55.2695L72.415 66.9556L72.9033 66.5358L73.6748 65.8676L74.776 64.9021L76.8493 63.0669L78.8447 61.3098L82.5633 58.0378C83.5896 57.1343 84.6273 56.2434 85.6761 55.3654L86.8715 54.3736L88.1844 53.2928L89.4046 52.296L89.3713 52.222C87.3871 52.6691 85.3848 53.0273 83.3707 53.2954L81.5043 53.5338L76.9951 54.1161L74.6994 54.4159C74.2847 54.4697 73.8743 54.5227 73.4682 54.5732L72.2635 54.7212L71.0843 54.8598L69.9315 54.9886L68.8045 55.1079C68.2474 55.1657 67.7005 55.219 67.1629 55.2695ZM87.3969 113.741L80.8485 99.1709C79.4526 100.013 78.2464 101.13 77.3077 102.451C76.4168 103.846 75.9553 105.459 75.9798 107.093C75.9916 109.316 76.4904 111.503 77.4424 113.503C78.1942 115.092 79.0913 116.608 80.1228 118.033C80.9485 119.351 81.935 120.563 83.0607 121.642C83.3725 121.798 83.303 121.979 82.8487 122.183L75.6536 125.416C75.4628 125.517 75.2497 125.566 75.0354 125.56C74.8599 125.538 74.6924 125.476 74.5451 125.381C73.2238 124.216 72.0619 122.887 71.0876 121.427C69.7108 119.467 68.5406 117.372 67.5947 115.173C66.0702 111.781 65.3064 108.687 65.3029 105.893L65.305 105.622C65.3088 102.933 65.9511 100.269 67.1808 97.8457C68.3451 95.5745 69.9582 93.5493 71.9238 91.8911C73.8631 90.2525 76.0258 88.8916 78.3462 87.8497C80.8764 86.7044 83.5685 85.9596 86.3216 85.6432C89.0027 85.3252 91.7118 85.5104 94.3047 86.189C96.8661 86.8565 99.2409 88.0636 101.267 89.7277C103.326 91.4094 104.868 93.7986 106.198 96.757C107.364 99.182 107.968 101.84 107.967 104.541C107.991 106.801 107.452 109.043 106.398 111.069C105.341 113.001 103.95 114.739 102.288 116.206C100.689 117.625 98.8825 118.797 96.9309 119.68C95.8196 120.18 94.793 120.597 93.8514 120.931L93.0438 121.215L92.2746 121.478L91.8823 121.605C91.8545 121.614 91.8268 121.622 91.7991 121.631C91.6235 121.687 91.4344 121.678 91.2676 121.605C91.1008 121.533 90.9678 121.402 90.894 121.238L90.7985 121.037L90.6716 120.79L90.5686 120.6L90.3217 120.158L90.0992 119.773C90.0379 119.668 89.9756 119.559 89.9122 119.445L89.7179 119.092L89.5155 118.712L89.3067 118.306L89.0899 117.875L88.9788 117.649L88.7513 117.178C88.5274 116.712 88.3403 116.215 88.1545 115.703L87.873 114.925C87.7281 114.525 87.5692 114.13 87.3969 113.741ZM87.7482 96.0699L92.2748 106.142L92.6661 106.997L92.9366 107.576L93.1152 107.95L93.3206 108.367C93.5299 108.729 93.8188 109.039 94.1665 109.276L94.6207 109.072C95.2064 108.791 95.7486 108.428 96.2299 107.994C97.3428 107.014 98.1045 105.707 98.398 104.274C98.6916 102.842 98.5008 101.362 97.855 100.062C97.3726 98.783 96.5199 97.676 95.4008 96.8765C94.2816 96.077 92.9445 95.6196 91.5525 95.5601C90.2683 95.5282 88.984 95.7003 87.7482 96.0699Z" fill="#9999FF"/>
</g>
<defs>
<clipPath id="clip0_2212_74">
<rect width="120.877" height="120.877" fill="white" transform="translate(110.254) rotate(65.7991)"/>
</clipPath>
</defs>
</svg>
