<svg width="73" height="73" viewBox="0 0 73 73" fill="none" xmlns="http://www.w3.org/2000/svg">
<g clip-path="url(#clip0_2212_70)">
<path d="M13.4928 0.765625H59.9135C66.9513 0.765625 72.6416 6.59255 72.6416 13.7992V59.494C72.6416 66.7007 66.9513 72.5276 59.9135 72.5276H13.4928C6.455 72.5276 0.764648 66.7007 0.764648 59.494V13.7992C0.764648 6.59255 6.455 0.765625 13.4928 0.765625Z" fill="#00005B"/>
<path d="M17.8357 51.0879V19.531C17.8357 19.3162 17.9255 19.1938 18.1353 19.1938L18.5699 19.1929L18.9063 19.19L19.1435 19.1854L19.3962 19.1788L19.6677 19.169L19.8123 19.163C20.0818 19.1515 20.3556 19.1443 20.635 19.1383L21.4927 19.1199C21.5901 19.1176 21.6887 19.115 21.7878 19.1118L22.0882 19.1018C22.3578 19.0914 22.634 19.0845 22.9171 19.0788L23.7855 19.063L24.3866 19.0494L24.694 19.0402C25.3129 19.0201 25.9185 19.0132 26.5196 19.0109L27.4192 19.0098C29.8751 19.0098 31.9115 19.3163 33.5888 19.9603C35.0922 20.4831 36.4631 21.3422 37.6019 22.4751C38.5669 23.4665 39.3126 24.6588 39.7882 25.9712C40.2375 27.2592 40.4769 28.578 40.4769 29.9581C40.4769 32.5954 39.8781 34.7727 38.68 36.4903C37.482 38.2075 35.8049 39.4956 33.8584 40.2316C31.8896 40.9728 29.7252 41.2551 27.3647 41.2732H26.5087L26.1754 41.2698L25.9617 41.2646L25.8359 41.2591L25.7231 41.2522L25.6223 41.2436C25.5576 41.2372 25.4928 41.2322 25.428 41.2287L25.282 41.2221L25.1219 41.2177L24.8549 41.214L24.3347 41.2129V51.0571C24.3644 51.2719 24.2148 51.4559 24.005 51.4867H18.1951C17.9556 51.4867 17.8357 51.3639 17.8357 51.0879ZM24.3644 25.1124V35.4167L24.7165 35.4426C24.988 35.4638 25.2601 35.4757 25.5324 35.4782H27.1199C28.2879 35.4782 29.4559 35.2942 30.5638 34.9262C31.5224 34.6502 32.3607 34.0674 33.0197 33.3006C33.6486 32.5341 33.9482 31.4913 33.9482 30.1421C33.9764 29.1837 33.7374 28.2369 33.2592 27.4125C32.7715 26.6486 32.0909 26.0534 31.2708 25.7081L31.163 25.6644C30.0548 25.2044 28.8567 25.0204 27.6289 25.0512L26.9366 25.052L26.6111 25.054L26.3003 25.0584L26.0052 25.0653C25.8615 25.0693 25.7236 25.0747 25.5925 25.0819C25.5282 25.0786 25.4638 25.0759 25.3993 25.0739L25.2199 25.0699C25.1919 25.0695 25.1638 25.0693 25.1357 25.0693L24.9768 25.0701L24.8325 25.0742L24.7656 25.077L24.643 25.0842L24.5351 25.0929L24.4866 25.0975L24.4015 25.1075L24.3644 25.1124ZM44.6697 26.8912H49.9108C50.1935 26.8912 50.4232 27.0827 50.5234 27.3366L50.5397 27.382C50.6296 27.6272 50.6894 27.8725 50.7194 28.1485C50.7792 28.4553 50.8393 28.7925 50.8691 29.0993L50.8943 29.396C50.914 29.6493 50.9292 29.9187 50.9292 30.2033C51.7868 29.1779 52.8154 28.3165 53.9671 27.6592L54.1336 27.566C55.5113 26.7685 57.0985 26.37 58.6857 26.37C58.8954 26.3392 59.0751 26.4924 59.1052 26.7072V32.8102C59.1052 33.0554 58.9552 33.1474 58.6259 33.1474C57.6196 33.1186 56.5875 33.1971 55.602 33.407L55.3914 33.4542C54.523 33.6382 53.6843 33.9142 52.8757 34.2822C52.3066 34.5582 51.7675 34.9262 51.3483 35.4167V51.0571C51.3483 51.3639 51.2285 51.4867 50.9589 51.4867H45.0591C44.8196 51.5171 44.6099 51.3639 44.5798 51.1187V34.0062C44.5798 33.2702 44.5798 32.5034 44.5501 31.7061L44.5321 31.1081L44.508 29.9121C44.5032 29.7125 44.4976 29.5133 44.49 29.3141C44.49 28.6085 44.4302 27.934 44.3704 27.2285C44.3403 27.0752 44.4302 26.922 44.5798 26.8912C44.5798 26.8651 44.6239 26.8613 44.6554 26.8797L44.6697 26.8912Z" fill="#9999FF"/>
</g>
<defs>
<clipPath id="clip0_2212_70">
<rect width="71.877" height="71.877" fill="white" transform="translate(0.764893 0.765625)"/>
</clipPath>
</defs>
</svg>
