<svg width="112" height="112" viewBox="0 0 112 112" fill="none" xmlns="http://www.w3.org/2000/svg">
<g clip-path="url(#clip0_2212_82)">
<path d="M1.62114 18.1949L0.323492 91.4059C0.145372 101.455 8.34298 109.749 18.6334 109.932L90.7955 111.211C101.086 111.393 109.572 103.395 109.75 93.3454L111.048 20.1345C111.226 10.0853 103.029 1.79096 92.7382 1.60857L20.5761 0.329506C10.2857 0.14711 1.79927 8.14574 1.62114 18.1949Z" fill="#330000"/>
<path d="M66.6102 57.6537L66.3092 74.6377L77.2401 78.2885C77.4398 78.3391 77.6152 78.4561 77.7361 78.6193C77.8569 78.7826 77.9157 78.9819 77.9023 79.1829L77.7498 87.7854C77.7411 88.2756 77.4619 88.4424 76.9121 88.2853L33.8062 72.8115C33.3572 72.6567 32.8456 72.5003 32.2708 72.3432C31.2694 72.1327 30.2505 72.0162 29.2269 71.995C29.1551 72.0038 29.0822 71.9961 29.0139 71.9725C28.9457 71.949 28.884 71.9103 28.8337 71.8594C28.7834 71.8086 28.7459 71.747 28.7242 71.6796C28.7025 71.6122 28.6971 71.5408 28.7086 71.4711L28.9158 59.7804C28.9219 59.4379 29.0512 59.2441 29.3032 59.1989L77.7838 43.363C78.2888 43.2246 78.5374 43.3763 78.5291 43.8173L78.3597 53.3758C78.3754 53.5403 78.3293 53.7047 78.2299 53.8383C78.1305 53.9718 77.9847 54.0654 77.8197 54.1016L66.6102 57.6537ZM56.8698 71.8229L57.0757 60.2059L56.5129 60.3617L55.6217 60.6118L54.9958 60.7904L54.0102 61.0758L51.9352 61.6827L50.0957 62.2162L45.3041 63.6016C44.113 63.9464 42.9174 64.2764 41.7177 64.5915L40.744 64.8432L39.5929 65.1372L37.8088 65.5852L37.4727 65.6692L37.4714 65.7424C39.2721 66.1423 41.0532 66.622 42.8094 67.1801L46.3832 68.3346L48.3577 68.9701L50.3566 69.6115C50.7177 69.7275 51.0748 69.8426 51.4276 69.9581L52.4731 70.3021L53.4941 70.644L54.4897 70.9837L55.4604 71.3212C55.7799 71.4331 56.095 71.5449 56.4061 71.6562L56.8698 71.8229ZM37.3788 32.7187C37.3963 33.4691 37.2515 34.2146 36.9537 34.9063C36.6559 35.5981 36.2119 36.2206 35.6508 36.733C35.0657 37.2437 34.3829 37.6363 33.6417 37.8882C32.9005 38.1402 32.1155 38.2466 31.3318 38.2013C30.555 38.2141 29.7839 38.0669 29.0691 37.7691C28.3542 37.4712 27.7115 37.0296 27.1831 36.4729C26.1644 35.3991 25.6087 33.9833 25.6318 32.5203L25.6364 32.3636C25.6677 30.5989 26.2315 29.2234 27.3286 28.2377C27.8984 27.7405 28.5631 27.358 29.2847 27.1121C30.0063 26.8662 30.7706 26.7618 31.5338 26.8047C32.3217 26.7879 33.1052 26.9258 33.8377 27.2104C34.5702 27.4951 35.2368 27.9205 35.7978 28.4615C36.3293 29.0071 36.7437 29.6509 37.0167 30.355C37.2897 31.0592 37.4157 31.8095 37.3872 32.5616L37.3788 32.7187ZM77.8697 38.5114L41.8816 37.8735C41.43 37.8655 41.2073 37.6662 41.2143 37.2732L41.3746 28.2293C41.3815 27.8375 41.6108 27.6455 42.0628 27.653L78.0509 28.2909C78.5533 28.2998 78.8011 28.5004 78.7937 28.8925L78.6347 37.8628C78.6273 38.2807 78.398 38.4967 77.9469 38.5106L77.8697 38.5114Z" fill="#FF9A00"/>
</g>
<defs>
<clipPath id="clip0_2212_82">
<rect width="109.62" height="109.62" fill="white" transform="translate(0 109.602) rotate(-88.9845)"/>
</clipPath>
</defs>
</svg>
