<svg width="94" height="94" viewBox="0 0 94 94" fill="none" xmlns="http://www.w3.org/2000/svg">
<g clip-path="url(#clip0_2212_70)">
<path d="M71.4711 11.8205L88.6861 54.9312C91.296 61.4672 87.9948 68.9127 81.302 71.5852L38.8655 88.5309C32.1727 91.2035 24.651 88.0798 22.0411 81.5438L4.82615 38.4331C2.21623 31.8972 5.51742 24.4517 12.2102 21.7791L54.6467 4.83345C61.3395 2.16089 68.8612 5.2846 71.4711 11.8205Z" fill="#00005B"/>
<path d="M26.3484 34.5152L55.6551 22.8124C55.8545 22.7328 56.0016 22.7708 56.0794 22.9656L56.2414 23.3689L56.3688 23.6802L56.461 23.8989L56.5609 24.1311L56.6706 24.3796L56.7299 24.5116C56.8405 24.7577 56.9487 25.0093 57.0579 25.2665L57.3931 26.0562C57.4314 26.1459 57.4703 26.2364 57.51 26.3273L57.6308 26.6026C57.7403 26.849 57.8492 27.1031 57.9595 27.3638L58.2962 28.1644L58.5317 28.7177L58.6542 28.9998C58.9024 29.567 59.1334 30.1269 59.3585 30.6843L59.6932 31.5193C60.6039 33.8001 61.0745 35.8049 61.0984 37.6015C61.1704 39.1916 60.8809 40.7833 60.2511 42.261C59.6883 43.5249 58.8575 44.6595 57.8151 45.5879C56.7855 46.4828 55.6496 47.1943 54.3679 47.7061C51.9187 48.6841 49.6745 48.9354 47.6351 48.4597C45.596 47.9839 43.7779 46.9042 42.3725 45.3693C40.954 43.8158 39.8892 41.9104 38.997 39.725L38.6795 38.93L38.5591 38.6192L38.4847 38.4188L38.4431 38.3L38.4077 38.1926L38.3783 38.0958C38.3603 38.0334 38.3409 37.9714 38.3201 37.9098L38.2721 37.7718L38.2168 37.6216L38.1212 37.3722L37.9294 36.8886L28.7871 40.5393C28.5986 40.6466 28.3723 40.5759 28.2659 40.3925L26.1113 34.9968C26.0225 34.7744 26.092 34.6175 26.3484 34.5152ZM52.8928 30.9455L43.3233 34.7668L43.4298 35.1033C43.5108 35.3634 43.6006 35.6205 43.6993 35.8743L44.288 37.3486C44.7211 38.4333 45.3252 39.4498 46.0778 40.3422C46.6896 41.1301 47.5417 41.6925 48.4982 42.0202C49.4433 42.32 50.5228 42.2115 51.7759 41.7111C52.6764 41.3819 53.4671 40.8088 54.0553 40.059C54.5839 39.3228 54.8842 38.47 54.9008 37.5803L54.9014 37.464C54.9176 36.2642 54.6442 35.0833 54.1603 33.9545L53.9027 33.3118L53.7802 33.0103L53.6609 32.7233L53.5451 32.4518C53.488 32.3198 53.4319 32.1938 53.3765 32.0747C53.3558 32.0137 53.3344 31.9529 53.3124 31.8923L53.2496 31.7242C53.2395 31.698 53.2293 31.6719 53.2189 31.6458L53.1592 31.4985L53.1019 31.366L53.0744 31.305L53.0223 31.1937L52.9743 31.0968L52.952 31.0534L52.9111 30.9781L52.8928 30.9455ZM58.771 50.4625L60.7146 55.3299C60.8194 55.5925 60.7268 55.8768 60.5282 56.064L60.492 56.096C60.2976 56.2704 60.092 56.4169 59.8468 56.5471C59.5841 56.7164 59.2932 56.8973 59.0194 57.0387L58.7532 57.1722C58.5252 57.2844 58.2807 57.3984 58.0163 57.5039C59.2867 57.9201 60.4681 58.5559 61.5057 59.3818L61.6539 59.5018C62.9055 60.4856 63.8642 61.8118 64.4528 63.2858C64.5592 63.4692 64.4835 63.6929 64.2952 63.8004L58.6274 66.0637C58.3996 66.1546 58.2586 66.0495 58.1365 65.7437C57.79 64.7985 57.3344 63.8691 56.774 63.0317L56.6521 62.8536C56.1592 62.1153 55.5918 61.4388 54.9502 60.8243C54.4828 60.3982 53.9411 60.034 53.3301 59.8266L38.805 65.6268C38.5201 65.7405 38.3616 65.6747 38.2616 65.4244L36.0737 59.9453C35.9566 59.7342 36.0211 59.4826 36.2377 59.3637L52.13 53.0176C52.8135 52.7447 53.5257 52.4603 54.255 52.137L54.8037 51.8986L55.9055 51.4326C56.0891 51.3542 56.272 51.2751 56.4542 51.1941C57.1095 50.9325 57.7137 50.6268 58.3468 50.3096C58.4779 50.2249 58.6536 50.2515 58.7376 50.3791C58.7619 50.3694 58.7817 50.4089 58.7763 50.445L58.771 50.4625Z" fill="#9999FF"/>
</g>
<defs>
<clipPath id="clip0_2212_70">
<rect width="71.877" height="71.877" fill="white" transform="translate(66.7517) rotate(68.2322)"/>
</clipPath>
</defs>
</svg>
