<svg width="140" height="157" viewBox="0 0 140 157" fill="none" xmlns="http://www.w3.org/2000/svg">
<g clip-path="url(#clip0_2212_100)">
<path d="M81.7349 146.112C92.2978 140.353 96.1965 127.106 90.4374 116.543L80.0041 97.407L60.8684 107.84C50.3055 113.599 46.4068 126.846 52.1659 137.409C57.925 147.972 71.1719 151.871 81.7349 146.112Z" fill="#0ACF83"/>
<path d="M31.3026 99.1435C25.5435 88.5806 29.4422 75.3337 40.0051 69.5746L59.1409 59.1413L80.0073 97.4128L60.8716 107.846C50.3087 113.605 37.0618 109.706 31.3026 99.1435Z" fill="#A259FF"/>
<path d="M10.4337 60.8682C4.67458 50.3052 8.5733 37.0583 19.1362 31.2992L38.272 20.8659L59.1384 59.1374L40.0027 69.5707C29.4398 75.3298 16.1929 71.4311 10.4337 60.8682Z" fill="#F24E1E"/>
<path d="M38.2729 20.8633L57.4087 10.43C67.9716 4.6709 81.2185 8.56962 86.9777 19.1325C92.7368 29.6955 88.8381 42.9424 78.2752 48.7015L59.1394 59.1347L38.2729 20.8633Z" fill="#FF7262"/>
<path d="M107.847 57.4079C113.606 67.9709 109.707 81.2178 99.1443 86.9769C88.5814 92.7361 75.3345 88.8373 69.5753 78.2744C63.8162 67.7115 67.7149 54.4646 78.2778 48.7054C88.8407 42.9463 102.088 46.845 107.847 57.4079Z" fill="#1ABCFE"/>
</g>
<defs>
<clipPath id="clip0_2212_100">
<rect width="87.1806" height="130.771" fill="white" transform="translate(0 41.7324) rotate(-28.6002)"/>
</clipPath>
</defs>
</svg>
