<svg width="48" height="71" viewBox="0 0 48 71" fill="none" xmlns="http://www.w3.org/2000/svg">
<g clip-path="url(#clip0_2212_100)">
<path d="M11.8338 70.9987C18.3658 70.9987 23.6672 65.6974 23.6672 59.1654V47.332H11.8338C5.30182 47.332 0.000488281 52.6334 0.000488281 59.1654C0.000488281 65.6974 5.30182 70.9987 11.8338 70.9987Z" fill="#0ACF83"/>
<path d="M0.000488281 35.5033C0.000488281 28.9713 5.30182 23.6699 11.8338 23.6699H23.6672V47.3366H11.8338C5.30182 47.3366 0.000488281 42.0353 0.000488281 35.5033Z" fill="#A259FF"/>
<path d="M0.000488281 11.8333C0.000488281 5.30133 5.30182 0 11.8338 0H23.6672V23.6667H11.8338C5.30182 23.6667 0.000488281 18.3653 0.000488281 11.8333Z" fill="#F24E1E"/>
<path d="M23.6682 -0.00195312L35.5015 -0.00195313C42.0335 -0.00195313 47.3349 5.29938 47.3349 11.8314C47.3349 18.3634 42.0335 23.6647 35.5015 23.6647H23.6682V-0.00195312Z" fill="#FF7262"/>
<path d="M47.3349 35.5033C47.3349 42.0353 42.0335 47.3366 35.5015 47.3366C28.9695 47.3366 23.6682 42.0353 23.6682 35.5033C23.6682 28.9713 28.9695 23.6699 35.5015 23.6699C42.0335 23.6699 47.3349 28.9713 47.3349 35.5033Z" fill="#1ABCFE"/>
</g>
<defs>
<clipPath id="clip0_2212_100">
<rect width="47.3333" height="71" fill="white"/>
</clipPath>
</defs>
</svg>
