<svg width="73" height="73" viewBox="0 0 73 73" fill="none" xmlns="http://www.w3.org/2000/svg">
<g clip-path="url(#clip0_2212_82)">
<path d="M60.9094 0.960937L12.8958 0.960937C6.30532 0.960937 0.962646 6.43184 0.962646 13.1805L0.962646 60.5063C0.962646 67.255 6.30532 72.7259 12.8958 72.7259H60.9094C67.5 72.7259 72.8426 67.255 72.8426 60.5063V13.1805C72.8426 6.43184 67.5 0.960937 60.9094 0.960937Z" fill="#330000"/>
<path d="M35.7948 44.0274H24.6562L22.3897 51.2364C22.3589 51.3679 22.2842 51.4842 22.1786 51.5654C22.0729 51.6465 21.9429 51.6874 21.811 51.6809H16.1693C15.8478 51.6809 15.7352 51.4998 15.8318 51.1375L25.4758 22.6966C25.5721 22.4004 25.6687 22.0632 25.765 21.6845C25.8913 21.0255 25.9559 20.3562 25.9579 19.6848C25.9513 19.6379 25.9555 19.59 25.9702 19.545C25.9848 19.5 26.0095 19.4591 26.0422 19.4255C26.075 19.3919 26.1149 19.3666 26.1588 19.3516C26.2028 19.3366 26.2495 19.3323 26.2954 19.3389H33.9624C34.187 19.3389 34.3156 19.4215 34.3482 19.5862L45.2939 51.187C45.3905 51.5164 45.2939 51.6812 45.0047 51.6809H38.736C38.6283 51.6931 38.52 51.6648 38.4313 51.6012C38.3425 51.5376 38.2795 51.4431 38.2539 51.3353L35.7948 44.0274ZM26.392 37.8061H34.0107L33.902 37.4389L33.7277 36.8575L33.6033 36.4493L33.4048 35.8064L32.9828 34.453L32.6116 33.2532L31.6476 30.1278C31.4077 29.3509 31.1775 28.5709 30.9569 27.788L30.7806 27.1526L30.5745 26.4013L30.26 25.2368L30.2011 25.0175H30.153C29.9118 26.2027 29.618 27.376 29.2725 28.5338L28.5571 30.8903L28.1634 32.1922L27.7661 33.5102C27.6942 33.7483 27.6229 33.9838 27.5513 34.2164L27.3379 34.9058L27.1257 35.5792L26.9145 36.2359L26.7045 36.8762C26.6349 37.087 26.5652 37.2948 26.4959 37.5001L26.392 37.8061ZM51.803 24.573C51.3112 24.5932 50.8207 24.5069 50.3637 24.3197C49.9068 24.1325 49.4935 23.8487 49.151 23.4867C48.8094 23.109 48.5441 22.666 48.3703 22.1829C48.1965 21.6999 48.1176 21.1865 48.1382 20.6722C48.1207 20.163 48.2083 19.6558 48.3953 19.1836C48.5822 18.7115 48.8643 18.285 49.2231 17.9321C49.9153 17.2517 50.8371 16.871 51.7965 16.8691L51.8993 16.8703C53.0567 16.8703 53.965 17.2239 54.624 17.9318C54.9566 18.2996 55.2151 18.731 55.3847 19.2012C55.5543 19.6714 55.6316 20.1713 55.6123 20.6722C55.6325 21.1885 55.5512 21.7038 55.3731 22.1874C55.195 22.6709 54.9238 23.1129 54.5757 23.487C54.2242 23.8418 53.8069 24.121 53.3484 24.3081C52.8899 24.4953 52.3995 24.5866 51.906 24.5767L51.803 24.573ZM48.4757 51.187V27.585C48.4757 27.2889 48.6037 27.1405 48.8615 27.1405H54.7927C55.0496 27.1405 55.1782 27.2886 55.1785 27.585V51.187C55.1785 51.5164 55.0499 51.6812 54.7927 51.6809H48.9098C48.6357 51.6809 48.4914 51.5331 48.4771 51.2376L48.4757 51.187Z" fill="#FF9A00"/>
</g>
<defs>
<clipPath id="clip0_2212_82">
<rect width="71.88" height="71.88" fill="white" transform="translate(0.962646 0.960938)"/>
</clipPath>
</defs>
</svg>
