<svg width="73" height="73" viewBox="0 0 73 73" fill="none" xmlns="http://www.w3.org/2000/svg">
<g clip-path="url(#clip0_2212_78)">
<path d="M60.7824 0.839844L12.7708 0.839844C6.18059 0.839844 0.838135 6.31052 0.838135 13.0589L0.838135 60.3828C0.838135 67.1312 6.18059 72.6018 12.7708 72.6018H60.7824C67.3727 72.6018 72.7151 67.1312 72.7151 60.3828V13.0589C72.7151 6.31052 67.3727 0.839844 60.7824 0.839844Z" fill="#001E36"/>
<path d="M17.0227 51.1614L17.0227 19.6108C17.0227 19.3808 17.1193 19.2653 17.3122 19.2653L17.6174 19.2644L18.139 19.2586L18.864 19.244L21.2926 19.1914L23.8968 19.1419C24.8127 19.1258 25.7207 19.1172 26.6208 19.1172C29.0635 19.1172 31.1207 19.43 32.7927 20.0553C34.3009 20.5777 35.6763 21.4379 36.8189 22.5733C37.7875 23.5575 38.536 24.7452 39.0129 26.0545C39.4639 27.3285 39.6925 28.6738 39.6881 30.029C39.6881 32.6628 39.0932 34.8352 37.9038 36.5465C36.7405 38.216 35.1179 39.4927 33.243 40.2139L33.0822 40.2743C31.1244 41.0221 28.9563 41.2924 26.5784 41.3094L26.2089 41.3105L25.6606 41.3076L25.384 41.3036L25.0757 41.2961L24.8899 41.2887L24.777 41.2826L24.4993 41.2723L24.1599 41.2651L23.6489 41.2613L23.5352 41.2611V51.1119C23.5436 51.1723 23.5382 51.2339 23.5194 51.2918C23.5006 51.3496 23.4688 51.4022 23.4267 51.4454C23.3846 51.4885 23.3332 51.521 23.2767 51.5403C23.2202 51.5596 23.1601 51.5651 23.1011 51.5564H17.3605C17.135 51.5564 17.0227 51.4253 17.0227 51.1614ZM23.5354 25.1902V35.4807C23.9203 35.5125 24.3061 35.529 24.6922 35.5302H26.2836C27.3808 35.5264 28.4716 35.3591 29.5217 35.0336L29.7312 34.9666C30.6865 34.6761 31.5402 34.1104 32.1904 33.337C32.7947 32.6073 33.1077 31.6019 33.1293 30.3205L33.1307 30.177C33.156 29.2219 32.9134 28.2795 32.4313 27.4615C31.9247 26.6705 31.1924 26.0584 30.334 25.7086C29.2131 25.2625 28.0159 25.0527 26.814 25.0916L26.2025 25.0933L25.8167 25.0968L25.4486 25.1017L24.9292 25.112L24.5501 25.1229L24.3533 25.1304L24.0902 25.1431L23.8662 25.1572L23.7384 25.1675L23.6281 25.1784L23.5795 25.1842L23.5354 25.1902ZM58.3312 33.6096C57.4901 33.167 56.5979 32.8345 55.6757 32.62L55.4623 32.5728C54.4478 32.3344 53.412 32.2031 52.3713 32.181L52.1113 32.1778C51.5012 32.1609 50.892 32.2358 50.3032 32.4001C49.9283 32.4854 49.595 32.704 49.3626 33.017C49.2055 33.2675 49.1218 33.5589 49.1217 33.8566C49.1305 34.1453 49.2322 34.4229 49.4109 34.6464C49.6668 34.9528 49.9744 35.2096 50.3192 35.4045L50.4236 35.4612C51.1111 35.8402 51.8194 36.1781 52.5451 36.4732C54.1633 37.0279 55.7096 37.7823 57.1497 38.7198C58.131 39.3539 58.9429 40.2277 59.5127 41.2628C59.9917 42.2427 60.2316 43.3269 60.2118 44.4225C60.2407 45.8695 59.8368 47.2909 59.0545 48.4962C58.2169 49.7195 57.0536 50.6706 55.7032 51.2361C54.289 51.8727 52.5521 52.2013 50.493 52.2229L50.279 52.224C49.0025 52.2373 47.7277 52.1229 46.4729 51.8825L46.2045 51.829C45.148 51.6306 44.1195 51.2989 43.1427 50.8414C43.0445 50.7895 42.9616 50.7118 42.9023 50.6164C42.843 50.5209 42.8095 50.4111 42.8052 50.298V44.9164C42.7994 44.8642 42.8076 44.8113 42.8289 44.7635C42.8501 44.7156 42.8837 44.6746 42.9259 44.6447C42.9673 44.6208 43.0149 44.6103 43.0622 44.6147C43.1096 44.6191 43.1545 44.6382 43.191 44.6695C44.3446 45.366 45.5971 45.8741 46.9036 46.1754C48.0552 46.4711 49.2365 46.6285 50.4236 46.6446C51.5484 46.6446 52.3761 46.4963 52.9067 46.2002C53.1464 46.0878 53.349 45.9068 53.4903 45.679C53.6315 45.4511 53.7052 45.1863 53.7024 44.9164C53.7024 44.4892 53.4613 44.0775 52.9792 43.6822C52.777 43.5166 52.487 43.3363 52.1096 43.1416L51.9291 43.0508L51.7365 42.9579L51.6354 42.9108L51.4237 42.8147C51.387 42.7983 51.3502 42.782 51.3134 42.7659L51.0831 42.667L50.9633 42.6167L50.7145 42.5146L50.5853 42.4628L50.3178 42.3573L50.0378 42.2501C48.5238 41.7105 47.0882 40.963 45.7704 40.0282C44.8279 39.357 44.0519 38.4693 43.5043 37.436C43.0301 36.4631 42.7904 35.388 42.8052 34.3008C42.8025 32.9944 43.1529 31.7127 43.8177 30.5977C44.5757 29.37 45.664 28.3925 46.9519 27.7835C48.3661 27.0599 50.1339 26.6976 52.2556 26.697C53.4983 26.6868 54.7399 26.7777 55.9685 26.9687C56.8582 27.0843 57.728 27.3252 58.5533 27.6846C58.6861 27.7237 58.7931 27.8241 58.8425 27.9563C58.8753 28.0768 58.8913 28.2013 58.8908 28.3266V33.3135C58.8978 33.4313 58.8425 33.5443 58.7462 33.6096C58.6817 33.6424 58.6107 33.6595 58.5387 33.6595C58.4667 33.6595 58.3957 33.6424 58.3312 33.6096Z" fill="#31A8FF"/>
</g>
<defs>
<clipPath id="clip0_2212_78">
<rect width="71.877" height="71.877" fill="white" transform="translate(0.838623 0.839844)"/>
</clipPath>
</defs>
</svg>
