<svg width="102" height="102" viewBox="0 0 102 102" fill="none" xmlns="http://www.w3.org/2000/svg">
<g clip-path="url(#clip0_2212_78)">
<path d="M93.4886 44.18L61.0389 8.79462C56.5847 3.93749 48.9419 3.69748 43.9682 8.25855L9.08966 40.2434C4.11595 44.8045 3.69478 52.4395 8.14895 57.2966L40.5987 92.682C45.0528 97.5392 52.6956 97.7792 57.6694 93.2181L92.5479 61.2332C97.5216 56.6722 97.9428 49.0372 93.4886 44.18Z" fill="#001E36"/>
<path d="M26.825 45.9391L50.0783 24.6149C50.2478 24.4594 50.3983 24.4525 50.5287 24.5947L50.7356 24.819L51.0924 25.1996L51.5932 25.724L53.2734 27.4784L55.0699 29.3643C55.7008 30.0284 56.3209 30.6918 56.9292 31.3552C58.5802 33.1555 59.74 34.8832 60.4092 36.5381C61.0435 38.0027 61.3392 39.5978 61.2746 41.2073C61.2039 42.5864 60.8344 43.9408 60.1918 45.1771C59.5577 46.3706 58.7206 47.4484 57.7189 48.361C55.7777 50.1412 53.7745 51.171 51.7094 51.451C49.6927 51.722 47.6551 51.389 45.8563 50.4947L45.7031 50.4169C43.8287 49.4794 42.1642 48.0641 40.5445 46.3231L40.294 46.0515L39.9255 45.6454L39.7415 45.4389L39.5387 45.2066L39.4186 45.0646L39.3467 44.9773L39.1667 44.7657L38.9426 44.5106L38.5999 44.1315L38.5233 44.0475L31.263 50.7054C31.2242 50.7525 31.1752 50.7901 31.1198 50.8153C31.0644 50.8406 31.0042 50.8527 30.944 50.8508C30.8837 50.849 30.825 50.8331 30.7726 50.8044C30.7202 50.7758 30.6755 50.7352 30.642 50.6859L26.7621 46.455C26.6097 46.2888 26.6304 46.1174 26.825 45.9391ZM50.368 33.1858L42.7837 40.1409C43.0204 40.446 43.269 40.7416 43.5291 41.0269L44.6047 42.1998C45.349 43.0059 46.2095 43.6968 47.1592 44.2507L47.3501 44.3598C48.21 44.8676 49.2038 45.1144 50.2133 45.071C51.1595 45.0231 52.1121 44.5743 53.0711 43.7241L53.1778 43.6282C53.8988 43.0013 54.4295 42.1855 54.7065 41.2774C54.9471 40.3693 54.9032 39.4159 54.5809 38.5469C54.1521 37.4193 53.4976 36.3951 52.6565 35.5355L52.242 35.086L51.9787 34.804L51.7263 34.536L51.3676 34.1602L51.1034 33.8882L50.9648 33.7482L50.7777 33.5629L50.6159 33.4073L50.5219 33.3201L50.4393 33.2462L50.4022 33.2143L50.368 33.1858ZM67.6803 64.5214C67.438 63.6023 67.08 62.7201 66.6148 61.8954L66.5053 61.7063C65.9953 60.7974 65.3921 59.9453 64.705 59.1633L64.5317 58.9695C64.1318 58.5084 63.6648 58.11 63.1458 57.7871C62.8295 57.5685 62.4432 57.4706 62.0553 57.5109C61.7645 57.5643 61.4933 57.6997 61.2738 57.9007C61.0669 58.1023 60.931 58.3649 60.8871 58.6477C60.8342 59.0434 60.8529 59.4437 60.9422 59.8295L60.9711 59.9448C61.1564 60.7076 61.3861 61.4581 61.6591 62.1924C62.3439 63.7599 62.833 65.4094 63.1154 67.1045C63.3113 68.2562 63.216 69.4453 62.8382 70.5647C62.4398 71.5801 61.8028 72.4896 60.982 73.2156C59.9351 74.2148 58.6145 74.8779 57.1974 75.1159C55.7297 75.3254 54.2425 75.1109 52.913 74.4978C51.488 73.8857 50.0719 72.8277 48.6643 71.3247L48.5188 71.1678C47.6463 70.2359 46.869 69.2191 46.1981 68.1317L46.0561 67.8978C45.4883 66.985 45.0377 66.0028 44.7146 64.9737C44.6865 64.8663 44.6877 64.7526 44.718 64.6444C44.7482 64.5362 44.8066 64.4373 44.887 64.3577L48.8533 60.7204C48.8879 60.6809 48.9324 60.6512 48.982 60.6345C49.0317 60.6178 49.0846 60.6148 49.1352 60.6258C49.1808 60.6401 49.2206 60.6681 49.2494 60.706C49.2781 60.7438 49.2944 60.7898 49.2961 60.8378C49.5624 62.1588 50.0345 63.4254 50.6954 64.5919C51.2559 65.6405 51.9382 66.6176 52.7287 67.5034C53.4889 68.3324 54.1576 68.8421 54.7345 69.0331C54.9793 69.1338 55.2497 69.1608 55.513 69.1109C55.7764 69.061 56.0214 68.9363 56.2185 68.7519C56.5333 68.4631 56.6738 68.0071 56.6393 67.3846C56.6247 67.1237 56.5616 66.7881 56.45 66.3784L56.3949 66.184L56.3332 65.9793L56.2996 65.8729L56.2273 65.652C56.2146 65.6138 56.2017 65.5757 56.1887 65.5376L56.106 65.3011L56.0621 65.1787L55.9692 64.9264L55.92 64.7962L55.817 64.5277L55.7068 64.2489C55.0812 62.7683 54.6618 61.2051 54.4601 59.602C54.3178 58.4538 54.4476 57.2818 54.839 56.1799C55.2356 55.1729 55.8659 54.2696 56.6773 53.5456C57.6383 52.6607 58.8197 52.0527 60.0908 51.789C61.508 51.518 62.964 51.6593 64.2832 52.197C65.7724 52.7502 67.2341 53.8082 68.6686 55.3716C69.5161 56.2806 70.2882 57.257 70.9778 58.2917C71.494 59.0255 71.9043 59.8294 72.1972 60.6806C72.2581 60.8049 72.2565 60.9515 72.1924 61.0773C72.1258 61.183 72.0449 61.2789 71.9521 61.3632L68.2767 64.7337C68.1946 64.8185 68.0739 64.8541 67.9607 64.8272C67.893 64.8019 67.8324 64.7611 67.7837 64.7081C67.735 64.655 67.6996 64.5911 67.6803 64.5214Z" fill="#31A8FF"/>
</g>
<defs>
<clipPath id="clip0_2212_78">
<rect width="71.877" height="71.877" fill="white" transform="translate(52.9746) rotate(47.478)"/>
</clipPath>
</defs>
</svg>
