<svg width="73" height="73" viewBox="0 0 73 73" fill="none" xmlns="http://www.w3.org/2000/svg">
<g clip-path="url(#clip0_2212_74)">
<rect width="71.88" height="71.88" transform="translate(0.265381 0.574219)" fill="white"/>
<path d="M60.2122 0.574219H12.1986C5.60806 0.574219 0.265381 6.04512 0.265381 12.7938V60.1196C0.265381 66.8683 5.60806 72.3392 12.1986 72.3392H60.2122C66.8027 72.3392 72.1454 66.8683 72.1454 60.1196V12.7938C72.1454 6.04512 66.8027 0.574219 60.2122 0.574219Z" fill="#00005B"/>
<path d="M29.1416 43.5085H18.0027L15.7363 50.7313C15.7072 50.8551 15.6392 50.9657 15.5428 51.046C15.4463 51.1264 15.3268 51.1721 15.2025 51.1761L9.51612 51.1758C9.19435 51.1758 9.08175 50.9946 9.17862 50.6324L18.8226 22.3091L18.9189 22.0115L18.9509 21.9097L19.0155 21.6969C19.0475 21.5871 19.0795 21.4707 19.1118 21.3444C19.2382 20.6857 19.3028 20.0161 19.3047 19.3447C19.2982 19.2978 19.3024 19.2499 19.3171 19.205C19.3318 19.16 19.3564 19.1191 19.3892 19.0856C19.4219 19.0521 19.4618 19.0268 19.5057 19.0118C19.5497 18.9968 19.5964 18.9925 19.6422 18.9991H27.3092C27.5339 18.9991 27.6622 19.0814 27.695 19.2461L38.6407 50.6821C38.737 51.0113 38.6407 51.1761 38.3515 51.1758H32.0828C31.9751 51.188 31.8668 51.1597 31.7781 51.0961C31.6894 51.0325 31.6263 50.9379 31.6007 50.8302L29.1416 43.5085ZM19.7388 37.4185H27.3575L27.2489 37.0514L27.0745 36.47L26.8193 35.6373L26.3293 34.0655L25.8626 32.5548L24.9945 29.7403C24.7546 28.9634 24.5243 28.1834 24.3037 27.4005L24.0572 26.5103L23.791 25.5348L23.5479 24.6299H23.4996C23.2584 25.8151 22.9646 26.9885 22.6191 28.1463L22.2934 29.2167L21.51 31.8044L21.1129 33.1227C21.0411 33.3608 20.9698 33.5962 20.8982 33.8288L20.6848 34.5183L20.4725 35.1917L20.2613 35.8484L20.0513 36.4887C19.9469 36.805 19.8424 37.1146 19.7388 37.4185ZM56.3858 40.6974H46.8867C47.0031 41.6598 47.3152 42.5864 47.8029 43.4176C48.3421 44.2408 49.1047 44.8844 49.9966 45.2693C51.2056 45.805 52.5132 46.0674 53.8301 46.0387C54.875 46.0182 55.916 45.9011 56.9404 45.689C57.8565 45.5624 58.7543 45.3228 59.6142 44.9754C59.7748 44.8443 59.8557 44.926 59.8557 45.2221V49.913C59.8636 50.0409 59.8386 50.1686 59.783 50.2833C59.728 50.373 59.6538 50.4489 59.5662 50.5056C58.6123 50.9383 57.6084 51.2446 56.5787 51.417C55.18 51.686 53.7583 51.8099 52.3353 51.7871C50.1238 51.7871 48.2597 51.4472 46.7429 50.7678L46.5969 50.7008C45.1388 50.043 43.851 49.0454 42.8362 47.7877C41.8881 46.6025 41.1829 45.2339 40.7626 43.7635C40.3466 42.3122 40.1357 40.8074 40.1362 39.2949C40.1318 37.6433 40.3841 36.0016 40.8836 34.4312C41.3647 32.8995 42.1255 31.4752 43.1256 30.2343C44.1121 29.0077 45.3457 28.0139 46.7421 27.3208C48.1564 26.6135 49.8282 26.3596 51.7569 26.3596C53.3565 26.3182 54.9453 26.6386 56.4102 27.2978C57.6419 27.8358 58.7262 28.6743 59.5685 29.7403C60.3584 30.7842 60.9624 31.9626 61.3526 33.2213C61.7325 34.4344 61.9277 35.7001 61.9312 36.974C61.9312 37.6986 61.9071 38.357 61.8591 38.9493L61.8161 39.4565L61.7712 39.9378L61.7445 40.1816C61.7425 40.1988 61.7405 40.2159 61.7384 40.2331C61.7258 40.3419 61.6748 40.4422 61.5948 40.515C61.5148 40.5879 61.4116 40.6281 61.3045 40.6281L61.1723 40.631L61.0075 40.6396L60.8792 40.6491L60.5793 40.6753L60.3159 40.702C60.2443 40.7098 60.1699 40.717 60.0927 40.7236L59.8537 40.7428L59.5985 40.7601L59.3276 40.7745L59.0406 40.7868L58.8909 40.792L58.5801 40.8006C58.2727 40.8084 57.9576 40.7888 57.6345 40.7647L57.1442 40.7279C56.8919 40.7089 56.6388 40.6988 56.3858 40.6974ZM46.8867 36.1992H53.4531L54.0124 36.1954L54.3926 36.19L54.6388 36.1842L54.9151 36.1744C55.1624 36.1491 55.4011 36.0681 55.6142 35.9372V35.6411C55.6046 35.2549 55.5397 34.8723 55.4216 34.5054C55.1615 33.663 54.6384 32.9313 53.9329 32.4228C53.2273 31.9142 52.3782 31.657 51.5159 31.6906C50.7044 31.6403 49.8961 31.833 49.1897 32.2451C48.4832 32.6572 47.9092 33.2709 47.5376 34.0114C47.2072 34.7002 46.9875 35.4387 46.8867 36.1992Z" fill="#9999FF"/>
</g>
<defs>
<clipPath id="clip0_2212_74">
<rect width="71.88" height="71.88" fill="white" transform="translate(0.265381 0.574219)"/>
</clipPath>
</defs>
</svg>
