<svg width="72" height="72" viewBox="0 0 72 72" fill="none" xmlns="http://www.w3.org/2000/svg">
<g clip-path="url(#clip0_2212_86)">
<path d="M11.0784 49.4668L7.31836 51.182L7.11621 65.1511L20.1327 59.213C15.6685 57.3407 12.4082 54.0455 11.0784 49.4668Z" fill="#FDBD39"/>
<path d="M13.0468 34.6934L0.000244141 40.6451L7.31878 51.1833L11.0788 49.4681C9.75305 44.9027 10.5707 39.7419 13.0468 34.6934Z" fill="#F69833"/>
<path d="M35.0014 14.5365C18.388 22.1155 7.6775 37.7545 11.0787 49.4677L71.2412 22.0215C67.84 10.3084 51.6148 6.95717 35.0014 14.5358" fill="#FECF33"/>
<path d="M47.3189 56.9527C63.932 49.3737 74.663 33.8037 71.2413 22.0215L11.0789 49.4673C14.5003 61.2495 30.7055 64.5313 47.3189 56.9527Z" fill="#EE6723"/>
<path d="M71.2413 22.0215L11.0789 49.468C12.257 53.5246 16.7493 55.5232 23.0528 55.5232C29.198 55.5232 37.0646 53.6253 45.2659 49.8838C61.8793 42.3048 73.5681 30.0338 71.2413 22.0222" fill="#F69833"/>
<path d="M59.2673 15.9688C53.1218 15.9688 45.2552 17.867 37.0539 21.6081C20.4408 29.1871 8.75205 41.4581 11.0785 49.4701L71.241 22.0239C70.0631 17.9673 65.5705 15.9688 59.2673 15.9688Z" fill="#FDBD39"/>
<path d="M55.9446 65.8916H55.9441C54.1741 65.8916 51.5627 63.8948 48.1825 59.957C44.1832 55.2983 39.6022 48.4749 35.2834 40.7434C30.9643 33.0122 27.4154 25.2832 25.2902 18.9797C22.9747 12.1101 22.6445 7.88614 24.3089 6.42546C24.6739 6.10535 25.1139 5.94336 25.6162 5.94336C26.9701 5.94336 29.6079 7.20208 34.4857 13.1987L34.5924 13.3299L34.5778 13.516C34.5445 13.9464 34.514 14.3771 34.4863 14.8081L34.4321 15.6552L33.9534 15.0532C28.6979 8.44117 26.3844 7.72731 25.6336 7.72731C25.4194 7.72731 25.2489 7.78166 25.1268 7.88895C24.4047 8.52252 24.3583 11.6248 26.6031 18.2841C28.6903 24.4754 32.1876 32.088 36.4508 39.7185C40.7143 47.3501 45.2249 54.0729 49.1528 58.6485C53.388 63.5821 55.2966 64.1146 55.9205 64.1146C56.1358 64.1146 56.311 64.0571 56.4408 63.9428C57.2025 63.2749 57.2033 59.9514 54.7 52.7837L54.5849 52.4548L54.8367 52.283C55.0883 52.1108 55.3317 51.9415 55.5597 51.7795L55.8612 51.5656L56 51.9629C57.775 57.0416 59.4343 63.4965 57.2586 65.4067C56.892 65.7282 56.45 65.8916 55.9446 65.8916ZM55.9441 65.1079H55.9446L55.9444 65.4996L55.9441 65.1079Z" fill="#EE6723"/>
<path d="M47.7218 56.7397L47.6966 57.1299C47.2765 63.6199 46.1706 71.4226 43.2871 71.7382C43.2292 71.7448 43.1691 71.748 43.1088 71.748C41.1501 71.748 39.2968 68.2432 37.6009 61.3311C35.9961 54.7917 34.7511 46.0114 34.0947 36.6078C33.4382 27.206 33.4481 18.288 34.1222 11.4972C34.8575 4.09699 36.2563 0.23211 38.2804 0.0105186C38.3405 0.00350619 38.4025 0 38.4637 0C39.8847 0 42.0264 2.00905 44.2187 11.3685L42.7873 11.7135C42.0553 8.58597 41.2574 6.04223 40.4653 4.29439C39.7328 2.67768 39.0205 1.78746 38.4598 1.78746C38.4413 1.78746 38.4227 1.78816 38.4045 1.78991C37.5271 1.88633 36.2493 4.54403 35.5367 11.7177C34.8747 18.3872 34.8665 27.1713 35.5142 36.4522C36.1625 45.7345 37.3873 54.3835 38.9632 60.8062C39.6688 63.6823 40.4429 66.0529 41.2018 67.6615C41.9015 69.1446 42.5787 69.9616 43.1082 69.9616C43.1268 69.9616 43.1447 69.9605 43.163 69.9588C44.0025 69.8669 45.5846 67.1012 46.2503 57.3701L47.7218 56.7397Z" fill="#EE6723"/>
</g>
<defs>
<clipPath id="clip0_2212_86">
<rect width="71.877" height="71.877" fill="white"/>
</clipPath>
</defs>
</svg>
