<svg width="72" height="72" viewBox="0 0 72 72" fill="none" xmlns="http://www.w3.org/2000/svg">
<path fill-rule="evenodd" clip-rule="evenodd" d="M16.875 0H55.125C64.4448 0 72 7.55519 72 16.875V55.125C72 64.4448 64.4448 72 55.125 72H16.875C7.55519 72 0 64.4448 0 55.125V16.875C0 7.55519 7.55519 0 16.875 0ZM25.4702 57.7125C17.4226 53.8014 11.8727 45.5484 11.8727 35.9986C11.8701 32.6151 12.5819 29.2692 13.9615 26.1798L25.4702 57.7125ZM50.297 28.1272C51.2156 29.7346 52.2866 31.7995 52.2866 34.781C52.2866 36.7193 51.5877 38.9492 50.6396 41.9743C50.5774 42.173 50.514 42.375 50.4498 42.5806L48.0434 50.6221L39.3243 24.687C40.7759 24.6107 42.0857 24.4569 42.0857 24.4569C43.3853 24.303 43.2326 22.3928 41.931 22.4696C41.931 22.4696 38.0244 22.7756 35.501 22.7756C33.1304 22.7756 29.1462 22.4696 29.1462 22.4696C27.846 22.3928 27.6935 24.3807 28.9937 24.4569C28.9937 24.4569 30.2245 24.6107 31.5236 24.687L35.2825 34.9858L30.0026 50.821L21.2169 24.6878C22.6713 24.6116 23.9782 24.4577 23.9782 24.4577C25.2776 24.3039 25.124 22.3936 23.8235 22.4701C23.8235 22.4701 19.9173 22.7767 17.3936 22.7767C16.9405 22.7767 16.407 22.7646 15.8411 22.7477C20.1549 16.1974 27.5706 11.8729 35.9991 11.8729C42.2806 11.8729 47.9992 14.274 52.2917 18.2064C52.2545 18.2043 52.2178 18.2013 52.1811 18.1982C52.1145 18.1928 52.0479 18.1873 51.9789 18.1873C49.6097 18.1873 47.9275 20.2516 47.9275 22.4696C47.9275 24.3033 48.9035 25.8779 50.0153 27.6715C50.1084 27.8218 50.2025 27.9736 50.297 28.1272ZM36.4227 38.1088L29.1839 59.1435C31.397 59.7953 33.6922 60.1264 35.9994 60.1264C38.7281 60.1274 41.4372 59.6649 44.0111 58.7587C43.9441 58.6532 43.8867 58.542 43.8395 58.4263L36.4227 38.1088ZM57.1694 24.4232C57.2791 25.2455 57.3334 26.0742 57.3319 26.9038C57.3319 29.3521 56.8746 32.1044 55.4973 35.5458L48.1278 56.853C55.3005 52.6702 60.125 44.8996 60.125 35.9988C60.1253 31.804 59.054 27.8595 57.1694 24.4232ZM7.875 35.9983C7.875 20.491 20.4919 7.875 35.9994 7.875C51.5062 7.875 64.1244 20.491 64.125 35.9983C64.125 51.5076 51.5062 64.123 35.9994 64.123C20.4919 64.123 7.875 51.5076 7.875 35.9983ZM9.16453 35.9983C9.16453 50.7954 21.2029 62.8341 35.9994 62.8341C50.7952 62.8341 62.8327 50.7954 62.8327 35.9983C62.8327 21.202 50.7952 9.16453 35.9994 9.16453C21.2026 9.16453 9.16453 21.202 9.16453 35.9983Z" fill="#0073AA"/>
</svg>
