<svg width="102" height="102" viewBox="0 0 102 102" fill="none" xmlns="http://www.w3.org/2000/svg">
<g clip-path="url(#clip0_2420_101)">
<mask id="mask0_2420_101" style="mask-type:luminance" maskUnits="userSpaceOnUse" x="25" y="25" width="52" height="52">
<path d="M25.6636 25.6638V76.2168H76.2165V25.6638H25.6636Z" fill="white"/>
</mask>
<g mask="url(#mask0_2420_101)">
<path d="M64.3678 25.663L37.5114 25.663C30.9679 25.663 25.6632 30.9677 25.6632 37.5113L25.6632 64.3676C25.6632 70.9112 30.9679 76.2159 37.5114 76.2159L64.3678 76.2159C70.9114 76.2159 76.2161 70.9112 76.2161 64.3676L76.2161 37.5113C76.2161 30.9677 70.9114 25.663 64.3678 25.663Z" fill="#0073AA"/>
<path d="M33.9993 50.9378C33.9995 57.6429 37.8962 63.4376 43.5467 66.1836L35.466 44.0438C34.4974 46.213 33.9975 48.5622 33.9993 50.9378ZM62.3749 50.083C62.3751 47.9894 61.623 46.5397 60.978 45.4111C60.1193 44.0159 59.3144 42.834 59.3144 41.4388C59.3143 39.8814 60.4955 38.4319 62.1589 38.432C62.2343 38.4321 62.3052 38.4413 62.3785 38.4454C59.3647 35.6844 55.3495 33.9986 50.9392 33.9985C45.0213 33.9986 39.8145 37.035 36.7857 41.6341C37.1831 41.6458 37.5578 41.6544 37.8758 41.6544C39.6478 41.6544 42.3904 41.4392 42.3904 41.4392C43.3034 41.3854 43.4114 42.7266 42.499 42.8347C42.499 42.8347 41.5813 42.9428 40.5602 42.9962L46.7289 61.345L50.4361 50.2266L47.7967 42.9955C46.8848 42.9421 46.0206 42.8341 46.0206 42.8341C45.1076 42.7805 45.2146 41.3847 46.1275 41.4386C46.1275 41.4386 48.925 41.6537 50.5894 41.6537C52.3612 41.6535 55.104 41.4386 55.104 41.4386C56.0179 41.3849 56.1253 42.7261 55.2127 42.8341C55.2127 42.8341 54.293 42.9422 53.2739 42.9957L59.3957 61.2054L61.0853 55.5591C61.8177 53.2159 62.3749 51.5332 62.3749 50.083Z" fill="white"/>
<path d="M51.2362 52.42L46.1537 67.1889C47.7077 67.6465 49.3192 67.879 50.939 67.879C52.8549 67.8797 54.7571 67.555 56.5643 66.9186C56.5173 66.8446 56.477 66.7665 56.4438 66.6853L51.2362 52.42ZM65.803 42.8108C65.8801 43.3883 65.9182 43.9701 65.9172 44.5525C65.9171 46.2716 65.5961 48.204 64.629 50.6202L59.4547 65.5806C64.4908 62.6438 67.8783 57.1878 67.8783 50.9383C67.8785 47.9931 67.1263 45.2235 65.803 42.8108Z" fill="white"/>
<path d="M50.9391 31.1929C40.0509 31.1927 31.1922 40.0508 31.1923 50.9388C31.1923 61.8283 40.0509 70.686 50.9391 70.6859C61.8268 70.686 70.6868 61.8283 70.6867 50.9388C70.6864 40.0508 61.8268 31.1928 50.9391 31.1929ZM50.9393 69.7809C40.5502 69.7809 32.0976 61.3283 32.0977 50.9388C32.0977 40.55 40.5499 32.0981 50.9391 32.0983C61.3276 32.0983 69.7794 40.55 69.7794 50.9388C69.7793 61.3284 61.3275 69.781 50.9393 69.7809Z" fill="white"/>
</g>
</g>
<defs>
<clipPath id="clip0_2420_101">
<rect width="71.88" height="71.88" fill="white" transform="translate(50.9399 0.113281) rotate(45)"/>
</clipPath>
</defs>
</svg>
