<svg width="72" height="72" viewBox="0 0 72 72" fill="none" xmlns="http://www.w3.org/2000/svg">
<path d="M55.0486 1.42495e-05L16.8514 0C7.54475 -2.70271e-06 1.16771e-05 7.54473 1.47291e-05 16.8514L0 55.0486C-7.84495e-07 64.3553 7.54473 71.9 16.8514 71.9H55.0486C64.3553 71.9001 71.9001 64.3553 71.9 55.0486L71.9 16.8514C71.9001 7.54465 64.3554 -8.68713e-05 55.0486 1.42495e-05Z" fill="#0073AA"/>
<path d="M11.8561 35.9484C11.8563 45.4849 17.3986 53.7265 25.435 57.6321L13.9422 26.1432C12.5645 29.2284 11.8535 32.5697 11.8561 35.9484ZM52.214 34.7326C52.2142 31.755 51.1445 29.6932 50.2272 28.0879C49.0058 26.1035 47.8611 24.4226 47.8611 22.4382C47.8609 20.2232 49.5409 18.1616 51.9068 18.1617C52.0139 18.1619 52.1149 18.1749 52.219 18.1808C47.9327 14.2539 42.2219 11.8563 35.9492 11.8561C27.5324 11.8563 20.1269 16.1748 15.8191 22.716C16.3843 22.7327 16.9172 22.7448 17.3696 22.7448C19.8898 22.7448 23.7904 22.4388 23.7904 22.4388C25.0891 22.3623 25.2426 24.2698 23.945 24.4236C23.945 24.4236 22.6398 24.5773 21.1874 24.6533L29.9611 50.7503L35.2337 34.9369L31.4798 24.6523C30.1827 24.5763 28.9536 24.4228 28.9536 24.4228C27.6552 24.3465 27.8073 22.3613 29.1057 22.438C29.1057 22.438 33.0844 22.7438 35.4517 22.7438C37.9717 22.7436 41.8728 22.438 41.8728 22.438C43.1726 22.3615 43.3253 24.2691 42.0273 24.4228C42.0273 24.4228 40.7193 24.5765 39.2698 24.6525L47.9767 50.5517L50.3797 42.5212C51.4214 39.1885 52.214 36.7952 52.214 34.7326Z" fill="white"/>
<path d="M36.372 38.0561L29.1432 59.0616C31.3534 59.7124 33.6455 60.0431 35.9492 60.0431C38.6742 60.0441 41.3797 59.5824 43.9499 58.6771C43.8832 58.5719 43.8258 58.4609 43.7785 58.3453L36.372 38.0561ZM57.0899 24.3893C57.1996 25.2106 57.2538 26.0382 57.2524 26.8665C57.2522 29.3115 56.7956 32.0599 55.4201 35.4964L48.0609 56.7742C55.2236 52.5973 60.0416 44.8373 60.0415 35.9488C60.0419 31.76 58.9721 27.8208 57.0899 24.3893Z" fill="white"/>
<path d="M35.9494 7.86407C20.4633 7.86387 7.86389 20.4625 7.86408 35.9482C7.86409 51.4361 20.4633 64.0341 35.9494 64.0339C51.4346 64.034 64.0359 51.4361 64.0359 35.9482C64.0354 20.4625 51.4346 7.86395 35.9494 7.86407ZM35.9496 62.7468C21.1735 62.7468 9.15159 50.7249 9.15179 35.9482C9.15179 21.1725 21.1731 9.15158 35.9494 9.15178C50.7247 9.15178 62.7454 21.1725 62.7454 35.9482C62.7453 50.725 50.7246 62.7469 35.9496 62.7468Z" fill="white"/>
</svg>
