<svg width="16" height="16" viewBox="0 0 16 16" fill="none" xmlns="http://www.w3.org/2000/svg">
<circle cx="8" cy="8" r="8" fill="url(#paint0_linear_2587_327)"/>
<circle cx="8.02447" cy="8.02472" r="6.86212" stroke="black" stroke-width="0.547364"/>
<path d="M6.1491 9.96862V7.86697C6.1491 7.70599 6.1164 7.56638 6.051 7.44815C5.98811 7.32741 5.89253 7.23434 5.76424 7.16894C5.63595 7.10354 5.47748 7.07084 5.28882 7.07084C5.11274 7.07084 4.95805 7.10102 4.82473 7.16139C4.69393 7.22176 4.59079 7.301 4.51533 7.3991C4.44238 7.4972 4.40591 7.60285 4.40591 7.71605H3.70788C3.70788 7.57015 3.74561 7.42551 3.82107 7.28214C3.89653 7.13876 4.0047 7.00921 4.14556 6.8935C4.28894 6.77528 4.45999 6.6822 4.65871 6.61429C4.85994 6.54386 5.08382 6.50864 5.33033 6.50864C5.62715 6.50864 5.88876 6.55895 6.11514 6.65957C6.34405 6.76018 6.52264 6.91237 6.65093 7.11612C6.78173 7.31735 6.84714 7.57015 6.84714 7.87452V9.77619C6.84714 9.91202 6.85845 10.0567 6.88109 10.2101C6.90625 10.3635 6.94272 10.4956 6.99051 10.6063V10.6666H6.2623C6.22708 10.5862 6.19941 10.4792 6.17929 10.3459C6.15916 10.2101 6.1491 10.0843 6.1491 9.96862ZM6.26984 8.19146L6.27739 8.68197H5.57181C5.37309 8.68197 5.19575 8.69832 5.0398 8.73102C4.88384 8.76121 4.75304 8.80774 4.64739 8.87063C4.54174 8.93352 4.46125 9.01275 4.40591 9.10834C4.35057 9.20141 4.3229 9.31083 4.3229 9.4366C4.3229 9.56489 4.35183 9.68186 4.40968 9.78751C4.46754 9.89315 4.55432 9.97742 4.67003 10.0403C4.78825 10.1007 4.93289 10.1309 5.10394 10.1309C5.31775 10.1309 5.50641 10.0856 5.66991 9.99503C5.83342 9.90447 5.96296 9.79379 6.05855 9.66299C6.15665 9.53219 6.20947 9.40516 6.21702 9.2819L6.5151 9.61771C6.49749 9.72336 6.4497 9.84033 6.37172 9.96862C6.29374 10.0969 6.18935 10.2202 6.05855 10.3384C5.93026 10.4541 5.77682 10.5509 5.59822 10.6289C5.42214 10.7044 5.22342 10.7421 5.00207 10.7421C4.72537 10.7421 4.48263 10.688 4.27385 10.5799C4.06758 10.4717 3.9066 10.3271 3.79089 10.146C3.67769 9.96233 3.62109 9.75732 3.62109 9.53093C3.62109 9.31209 3.66386 9.11966 3.74938 8.95364C3.83491 8.78511 3.95816 8.6455 4.11915 8.53482C4.28014 8.42163 4.47383 8.3361 4.70021 8.27825C4.9266 8.22039 5.1794 8.19146 5.45862 8.19146H6.26984Z" fill="black"/>
<path d="M8.31422 4.87109V10.6666H7.61241V4.87109H8.31422ZM10.8083 6.5841L9.02734 8.48954L8.03123 9.52339L7.97464 8.78008L8.68776 7.92734L9.95554 6.5841H10.8083ZM10.1706 10.6666L8.71417 8.7197L9.07639 8.09714L10.9932 10.6666H10.1706Z" fill="black"/>
<path d="M11.2076 10.2969C11.2076 10.1787 11.244 10.0793 11.317 9.9988C11.3924 9.91579 11.5006 9.87429 11.6415 9.87429C11.7823 9.87429 11.8892 9.91579 11.9622 9.9988C12.0376 10.0793 12.0754 10.1787 12.0754 10.2969C12.0754 10.4126 12.0376 10.5107 11.9622 10.5912C11.8892 10.6717 11.7823 10.7119 11.6415 10.7119C11.5006 10.7119 11.3924 10.6717 11.317 10.5912C11.244 10.5107 11.2076 10.4126 11.2076 10.2969Z" fill="black"/>
<defs>
<linearGradient id="paint0_linear_2587_327" x1="13.8611" y1="26.2114" x2="-2.4972" y2="25.0937" gradientUnits="userSpaceOnUse">
<stop offset="0.100894" stop-color="#52BBEF"/>
<stop offset="1" stop-color="#10C690"/>
</linearGradient>
</defs>
</svg>
