<svg width="1440" height="666" viewBox="0 0 1440 666" fill="none" xmlns="http://www.w3.org/2000/svg">
<g clip-path="url(#clip0_2630_1526)">
<g opacity="0.5">
<path d="M386.864 0L-722 666.273" stroke="#4D4D4D" stroke-width="0.666273"/>
<path d="M428.506 0L-412.875 666.273" stroke="#4D4D4D" stroke-width="0.666273"/>
<path d="M470.147 0L-178.906 666.273" stroke="#4D4D4D" stroke-width="0.666273"/>
<path d="M511.79 0L11.9929 666.273" stroke="#4D4D4D" stroke-width="0.666273"/>
<path d="M553.432 0L176.473 666.273" stroke="#4D4D4D" stroke-width="0.666273"/>
<path d="M595.074 0L324.19 666.272" stroke="#4D4D4D" stroke-width="0.666273"/>
<path d="M636.716 0L461.301 666.273" stroke="#4D4D4D" stroke-width="0.666273"/>
<path d="M678.358 0L592.12 666.273" stroke="#4D4D4D" stroke-width="0.666273"/>
<path d="M720 0V666.273" stroke="#4D4D4D" stroke-width="0.666273"/>
<path d="M761.642 0L847.88 666.273" stroke="#4D4D4D" stroke-width="0.666273"/>
<path d="M803.284 0L978.699 666.273" stroke="#4D4D4D" stroke-width="0.666273"/>
<path d="M844.926 0L1115.81 666.272" stroke="#4D4D4D" stroke-width="0.666273"/>
<path d="M886.568 0L1263.53 666.273" stroke="#4D4D4D" stroke-width="0.666273"/>
<path d="M928.21 0L1428.01 666.273" stroke="#4D4D4D" stroke-width="0.666273"/>
<path d="M969.852 0L1618.91 666.273" stroke="#4D4D4D" stroke-width="0.666273"/>
<path d="M1011.49 0L1852.87 666.273" stroke="#4D4D4D" stroke-width="0.666273"/>
<path d="M1053.14 0L2162 666.273" stroke="#4D4D4D" stroke-width="0.666273"/>
<path d="M-722 666.273H2162" stroke="#4D4D4D" stroke-width="0.666273"/>
<path d="M-663.639 631.205H2103.64" stroke="#4D4D4D" stroke-width="0.666273"/>
<path d="M-605.277 596.139H2045.28" stroke="#4D4D4D" stroke-width="0.666273"/>
<path d="M-546.916 561.072H1986.92" stroke="#4D4D4D" stroke-width="0.666273"/>
<path d="M-488.555 526.004H1928.56" stroke="#4D4D4D" stroke-width="0.666273"/>
<path d="M-430.194 490.938H1870.19" stroke="#4D4D4D" stroke-width="0.666273"/>
<path d="M-371.833 455.871H1811.83" stroke="#4D4D4D" stroke-width="0.666273"/>
<path d="M-313.471 420.805H1753.47" stroke="#4D4D4D" stroke-width="0.666273"/>
<path d="M-255.11 385.736H1695.11" stroke="#4D4D4D" stroke-width="0.666273"/>
<path d="M-196.749 350.67H1636.75" stroke="#4D4D4D" stroke-width="0.666273"/>
<path d="M-138.388 315.604H1578.39" stroke="#4D4D4D" stroke-width="0.666273"/>
<path d="M-80.0264 280.535H1520.03" stroke="#4D4D4D" stroke-width="0.666273"/>
<path d="M-21.665 245.469H1461.66" stroke="#4D4D4D" stroke-width="0.666273"/>
<path d="M36.6963 210.402H1403.3" stroke="#4D4D4D" stroke-width="0.666273"/>
<path d="M95.0576 175.334H1344.94" stroke="#4D4D4D" stroke-width="0.666273"/>
<path d="M153.419 140.268H1286.58" stroke="#4D4D4D" stroke-width="0.666273"/>
<path d="M211.78 105.201H1228.22" stroke="#4D4D4D" stroke-width="0.666273"/>
<path d="M270.141 70.1348H1169.86" stroke="#4D4D4D" stroke-width="0.666273"/>
<path d="M328.502 35.0664H1111.5" stroke="#4D4D4D" stroke-width="0.666273"/>
<path d="M386.864 0H1053.14" stroke="#4D4D4D" stroke-width="0.666273"/>
</g>
</g>
<defs>
<clipPath id="clip0_2630_1526">
<rect width="1440" height="666" fill="white"/>
</clipPath>
</defs>
</svg>
