<svg width="100" height="100" viewBox="0 0 100 100" fill="none" xmlns="http://www.w3.org/2000/svg">
<circle cx="50" cy="50" r="50" fill="url(#paint0_linear_1755_513)"/>
<circle cx="50.1535" cy="50.1542" r="42.033" stroke="black" stroke-width="5.13154"/>
<path d="M38.4329 62.3039V49.1686C38.4329 48.1624 38.2285 47.2899 37.8197 46.551C37.4267 45.7963 36.8293 45.2146 36.0275 44.8059C35.2257 44.3971 34.2352 44.1927 33.0561 44.1927C31.9556 44.1927 30.9888 44.3814 30.1555 44.7587C29.338 45.136 28.6934 45.6313 28.2218 46.2444C27.7659 46.8575 27.5379 47.5178 27.5379 48.2253H23.1752C23.1752 47.3135 23.411 46.4095 23.8827 45.5133C24.3543 44.6172 25.0303 43.8076 25.9107 43.0844C26.8069 42.3455 27.8759 41.7638 29.1179 41.3393C30.3756 40.8991 31.7748 40.679 33.3155 40.679C35.1707 40.679 36.8057 40.9934 38.2206 41.6223C39.6513 42.2511 40.7675 43.2023 41.5693 44.4757C42.3868 45.7334 42.7956 47.3135 42.7956 49.2157V61.1012C42.7956 61.9501 42.8663 62.8541 43.0078 63.8131C43.165 64.7721 43.393 65.5975 43.6917 66.2892V66.6666H39.1403C38.9202 66.1635 38.7473 65.4953 38.6215 64.6621C38.4958 63.8131 38.4329 63.027 38.4329 62.3039ZM39.1875 51.1967L39.2347 54.2623H34.8248C33.5828 54.2623 32.4744 54.3645 31.4997 54.5689C30.525 54.7576 29.7075 55.0484 29.0472 55.4414C28.3869 55.8345 27.8838 56.3297 27.5379 56.9271C27.192 57.5088 27.0191 58.1927 27.0191 58.9788C27.0191 59.7806 27.1999 60.5116 27.5615 61.1719C27.9231 61.8322 28.4655 62.3589 29.1887 62.7519C29.9276 63.1292 30.8315 63.3179 31.9006 63.3179C33.2369 63.3179 34.416 63.0349 35.4379 62.4689C36.4598 61.903 37.2695 61.2112 37.8669 60.3937C38.48 59.5762 38.8102 58.7823 38.8573 58.0119L40.7203 60.1107C40.6103 60.771 40.3116 61.5021 39.8242 62.3039C39.3369 63.1057 38.6844 63.876 37.8669 64.6149C37.0651 65.3381 36.1061 65.9434 34.9899 66.4307C33.8894 66.9024 32.6474 67.1382 31.2639 67.1382C29.5345 67.1382 28.0174 66.8002 26.7125 66.1242C25.4234 65.4482 24.4172 64.5442 23.694 63.4122C22.9865 62.2646 22.6328 60.9833 22.6328 59.5683C22.6328 58.2006 22.9001 56.9979 23.4346 55.9602C23.9691 54.9069 24.7395 54.0344 25.7457 53.3426C26.7518 52.6352 27.9624 52.1006 29.3773 51.739C30.7922 51.3774 32.3722 51.1967 34.1173 51.1967H39.1875Z" fill="black"/>
<path d="M51.9648 30.4443V66.6666H47.5786V30.4443H51.9648ZM67.5527 41.1506L56.4219 53.0596L50.1962 59.5212L49.8424 54.8755L54.2995 49.5459L62.2231 41.1506H67.5527ZM63.5673 66.6666L54.4646 54.4982L56.7284 50.6071L68.7082 66.6666H63.5673Z" fill="black"/>
<path d="M70.0482 64.3555C70.0482 63.6166 70.2761 62.9956 70.7321 62.4925C71.2037 61.9737 71.8797 61.7143 72.7601 61.7143C73.6405 61.7143 74.3087 61.9737 74.7646 62.4925C75.2363 62.9956 75.4721 63.6166 75.4721 64.3555C75.4721 65.0787 75.2363 65.6918 74.7646 66.1949C74.3087 66.698 73.6405 66.9495 72.7601 66.9495C71.8797 66.9495 71.2037 66.698 70.7321 66.1949C70.2761 65.6918 70.0482 65.0787 70.0482 64.3555Z" fill="black"/>
<defs>
<linearGradient id="paint0_linear_1755_513" x1="86.6319" y1="163.821" x2="-15.6075" y2="156.836" gradientUnits="userSpaceOnUse">
<stop offset="0.100894" stop-color="#52BBEF"/>
<stop offset="1" stop-color="#10C690"/>
</linearGradient>
</defs>
</svg>
