<svg width="60" height="60" viewBox="0 0 60 60" fill="none" xmlns="http://www.w3.org/2000/svg">
<g clip-path="url(#clip0_213_666)">
<path d="M30 60C46.5685 60 60 46.5685 60 30C60 13.4315 46.5685 0 30 0C13.4315 0 0 13.4315 0 30C0 46.5685 13.4315 60 30 60Z" fill="url(#paint0_linear_213_666)"/>
<path fill-rule="evenodd" clip-rule="evenodd" d="M30.0921 6.41218C17.0138 6.41218 6.41175 17.0142 6.41175 30.0925C6.41175 43.1708 17.0138 53.7729 30.0921 53.7729C43.1704 53.7729 53.7724 43.1708 53.7724 30.0925C53.7724 17.0142 43.1704 6.41218 30.0921 6.41218ZM3.33282 30.0925C3.33282 15.3138 15.3134 3.33325 30.0921 3.33325C44.8708 3.33325 56.8514 15.3138 56.8514 30.0925C56.8514 44.8712 44.8708 56.8518 30.0921 56.8518C15.3134 56.8518 3.33282 44.8712 3.33282 30.0925Z" fill="black"/>
<path d="M23.0597 37.3824V29.5012C23.0597 28.8975 22.9371 28.374 22.6918 27.9307C22.456 27.4778 22.0976 27.1288 21.6165 26.8836C21.1354 26.6383 20.5411 26.5157 19.8336 26.5157C19.1733 26.5157 18.5933 26.6289 18.0933 26.8553C17.6028 27.0817 17.216 27.3789 16.9331 27.7467C16.6595 28.1146 16.5227 28.5108 16.5227 28.9353H13.9051C13.9051 28.3882 14.0466 27.8458 14.3296 27.3081C14.6126 26.7704 15.0182 26.2846 15.5464 25.8507C16.0841 25.4074 16.7255 25.0583 17.4707 24.8036C18.2253 24.5395 19.0649 24.4075 19.9893 24.4075C21.1024 24.4075 22.0834 24.5961 22.9323 24.9734C23.7908 25.3507 24.4605 25.9215 24.9416 26.6855C25.4321 27.4401 25.6773 28.3882 25.6773 29.5295V36.6608C25.6773 37.1701 25.7198 37.7125 25.8047 38.2879C25.899 38.8633 26.0358 39.3586 26.215 39.7736V40H23.4842C23.3521 39.6982 23.2484 39.2973 23.1729 38.7973C23.0975 38.2879 23.0597 37.8163 23.0597 37.3824ZM23.5125 30.7181L23.5408 32.5574H20.8949C20.1497 32.5574 19.4846 32.6188 18.8998 32.7414C18.315 32.8546 17.8245 33.0291 17.4283 33.2649C17.0321 33.5008 16.7303 33.7979 16.5227 34.1563C16.3152 34.5054 16.2114 34.9157 16.2114 35.3874C16.2114 35.8684 16.3199 36.307 16.5369 36.7032C16.7538 37.0994 17.0793 37.4154 17.5132 37.6512C17.9565 37.8776 18.4989 37.9908 19.1403 37.9908C19.9421 37.9908 20.6496 37.821 21.2627 37.4814C21.8759 37.1419 22.3617 36.7268 22.7201 36.2363C23.088 35.7458 23.2861 35.2695 23.3144 34.8072L24.4322 36.0665C24.3662 36.4627 24.1869 36.9013 23.8945 37.3824C23.6021 37.8635 23.2106 38.3257 22.7201 38.769C22.239 39.2029 21.6636 39.5661 20.9939 39.8585C20.3336 40.1415 19.5884 40.283 18.7583 40.283C17.7207 40.283 16.8104 40.0802 16.0275 39.6746C15.254 39.269 14.6503 38.7266 14.2164 38.0474C13.7919 37.3588 13.5797 36.59 13.5797 35.741C13.5797 34.9204 13.74 34.1988 14.0607 33.5762C14.3814 32.9442 14.8437 32.4207 15.4474 32.0056C16.0511 31.5812 16.7774 31.2604 17.6264 31.0435C18.4753 30.8265 19.4233 30.7181 20.4704 30.7181H23.5125Z" fill="black"/>
<path d="M31.1789 18.2666V40H28.5472V18.2666H31.1789ZM40.5316 24.6904L33.8532 31.8358L30.1177 35.7127L29.9055 32.9253L32.5797 29.7276L37.3339 24.6904H40.5316ZM38.1404 40L32.6788 32.6989L34.0371 30.3643L41.2249 40H38.1404Z" fill="black"/>
<path d="M42.0289 38.6133C42.0289 38.1699 42.1657 37.7973 42.4393 37.4955C42.7222 37.1842 43.1278 37.0286 43.6561 37.0286C44.1843 37.0286 44.5852 37.1842 44.8588 37.4955C45.1418 37.7973 45.2833 38.1699 45.2833 38.6133C45.2833 39.0472 45.1418 39.4151 44.8588 39.7169C44.5852 40.0188 44.1843 40.1697 43.6561 40.1697C43.1278 40.1697 42.7222 40.0188 42.4393 39.7169C42.1657 39.4151 42.0289 39.0472 42.0289 38.6133Z" fill="black"/>
</g>
<defs>
<linearGradient id="paint0_linear_213_666" x1="51.9791" y1="98.2926" x2="-9.3645" y2="94.1016" gradientUnits="userSpaceOnUse">
<stop offset="0.100894" stop-color="#52BBEF"/>
<stop offset="1" stop-color="#10C690"/>
</linearGradient>
<clipPath id="clip0_213_666">
<rect width="60" height="60" fill="white"/>
</clipPath>
</defs>
</svg>
