<svg width="60" height="60" viewBox="0 0 60 60" fill="none" xmlns="http://www.w3.org/2000/svg">
<g clip-path="url(#clip0_155_50)">
<path d="M30 0C46.5685 0 60 13.4315 60 30C60 46.5685 46.5685 60 30 60C13.4315 60 0 46.5685 0 30C0 13.4315 13.4315 0 30 0ZM30.0928 3.33398C15.3142 3.33398 3.33326 15.3143 3.33301 30.0928C3.33301 44.8715 15.3141 56.8525 30.0928 56.8525C44.8713 56.8523 56.8516 44.8713 56.8516 30.0928C56.8513 15.3144 44.8711 3.33425 30.0928 3.33398ZM30.0928 6.41309C43.1707 6.41335 53.7722 17.0148 53.7725 30.0928C53.7725 43.1709 43.1709 53.7732 30.0928 53.7734C17.0145 53.7734 6.41211 43.1711 6.41211 30.0928C6.41236 17.0147 17.0146 6.41309 30.0928 6.41309Z" fill="#111111"/>
<path d="M23.0596 37.3831V29.5019C23.0596 28.8982 22.937 28.3747 22.6917 27.9314C22.4559 27.4785 22.0975 27.1295 21.6164 26.8843C21.1353 26.639 20.541 26.5164 19.8335 26.5164C19.1732 26.5164 18.5932 26.6296 18.0932 26.856C17.6027 27.0824 17.2159 27.3796 16.933 27.7474C16.6594 28.1153 16.5226 28.5115 16.5226 28.936H13.905C13.905 28.3889 14.0465 27.8465 14.3295 27.3088C14.6125 26.7711 15.0181 26.2853 15.5463 25.8514C16.084 25.4081 16.7254 25.059 17.4706 24.8043C18.2252 24.5402 19.0648 24.4082 19.9892 24.4082C21.1023 24.4082 22.0833 24.5968 22.9322 24.9741C23.7907 25.3514 24.4604 25.9222 24.9415 26.6862C25.432 27.4408 25.6772 28.3889 25.6772 29.5302V36.6615C25.6772 37.1708 25.7197 37.7132 25.8046 38.2886C25.8989 38.864 26.0357 39.3593 26.2149 39.7743V40.0007H23.4841C23.352 39.6989 23.2483 39.298 23.1728 38.798C23.0974 38.2886 23.0596 37.817 23.0596 37.3831ZM23.5124 30.7188L23.5407 32.5581H20.8948C20.1496 32.5581 19.4845 32.6195 18.8997 32.7421C18.3149 32.8553 17.8244 33.0298 17.4282 33.2656C17.032 33.5015 16.7302 33.7986 16.5226 34.157C16.3151 34.5061 16.2113 34.9164 16.2113 35.3881C16.2113 35.8691 16.3198 36.3077 16.5368 36.7039C16.7537 37.1001 17.0792 37.4161 17.5131 37.6519C17.9564 37.8783 18.4988 37.9915 19.1402 37.9915C19.942 37.9915 20.6495 37.8217 21.2626 37.4821C21.8758 37.1426 22.3616 36.7275 22.72 36.237C23.0879 35.7465 23.286 35.2702 23.3143 34.8079L24.4321 36.0672C24.3661 36.4634 24.1868 36.902 23.8944 37.3831C23.602 37.8642 23.2105 38.3264 22.72 38.7697C22.2389 39.2036 21.6635 39.5668 20.9938 39.8592C20.3335 40.1422 19.5883 40.2837 18.7582 40.2837C17.7206 40.2837 16.8103 40.0809 16.0274 39.6753C15.2539 39.2697 14.6502 38.7273 14.2163 38.0481C13.7918 37.3595 13.5796 36.5907 13.5796 35.7417C13.5796 34.9211 13.7399 34.1995 14.0606 33.5769C14.3813 32.9449 14.8436 32.4214 15.4473 32.0063C16.051 31.5819 16.7773 31.2611 17.6263 31.0442C18.4752 30.8272 19.4232 30.7188 20.4703 30.7188H23.5124Z" fill="white"/>
<path d="M31.1791 18.2656V39.999H28.5474V18.2656H31.1791ZM40.5318 24.6894L33.8534 31.8348L30.1179 35.7117L29.9057 32.9243L32.5799 29.7266L37.3341 24.6894H40.5318ZM38.1406 39.999L32.679 32.6979L34.0373 30.3633L41.2251 39.999H38.1406Z" fill="white"/>
<path d="M42.0288 38.614C42.0288 38.1706 42.1656 37.798 42.4392 37.4962C42.7221 37.1849 43.1277 37.0293 43.656 37.0293C44.1842 37.0293 44.5851 37.1849 44.8587 37.4962C45.1417 37.798 45.2832 38.1706 45.2832 38.614C45.2832 39.0479 45.1417 39.4158 44.8587 39.7176C44.5851 40.0195 44.1842 40.1704 43.656 40.1704C43.1277 40.1704 42.7221 40.0195 42.4392 39.7176C42.1656 39.4158 42.0288 39.0479 42.0288 38.614Z" fill="white"/>
</g>
<defs>
<clipPath id="clip0_155_50">
<rect width="60" height="60" fill="white"/>
</clipPath>
</defs>
</svg>
