<svg width="30" height="30" viewBox="0 0 30 30" fill="none" xmlns="http://www.w3.org/2000/svg">
<g clip-path="url(#clip0_2643_1642)">
<path d="M26.25 20.0008V15.0008C26.2496 13.3214 25.8725 11.6636 25.1465 10.1492C24.4205 8.63493 23.3641 7.30274 22.055 6.25078H25.3463C25.6233 6.7228 26.0482 7.09034 26.5551 7.29651C27.0621 7.50268 27.6229 7.53599 28.1507 7.39127C28.6786 7.24655 29.144 6.93187 29.4749 6.49596C29.8058 6.06004 29.9838 5.5272 29.9814 4.9799C29.9789 4.4326 29.7961 3.90138 29.4613 3.46846C29.1264 3.03554 28.6582 2.72507 28.1291 2.58511C27.6 2.44514 27.0395 2.48349 26.5344 2.69422C26.0293 2.90494 25.6078 3.27629 25.335 3.75078H19.8225C19.5497 2.6788 18.9274 1.72829 18.0541 1.0494C17.1808 0.37051 16.1062 0.00195313 15 0.00195312C13.8938 0.00195313 12.8192 0.37051 11.9459 1.0494C11.0726 1.72829 10.4503 2.6788 10.1775 3.75078H4.65375C4.37673 3.27877 3.95185 2.91123 3.44486 2.70506C2.93788 2.49888 2.37707 2.46558 1.84925 2.6103C1.32143 2.75502 0.856033 3.0697 0.5251 3.50561C0.194166 3.94153 0.0161532 4.47437 0.018616 5.02167C0.0210788 5.56896 0.20388 6.10019 0.538724 6.5331C0.873567 6.96602 1.34178 7.27649 1.87088 7.41646C2.39998 7.55642 2.96047 7.51808 3.46557 7.30735C3.97068 7.09662 4.39224 6.72527 4.665 6.25078H7.945C6.63595 7.30274 5.57952 8.63493 4.85352 10.1492C4.12751 11.6636 3.75042 13.3214 3.75 15.0008V20.0008C2.75544 20.0008 1.80161 20.3959 1.09835 21.0991C0.395088 21.8024 0 22.7562 0 23.7508L0 26.2508C0 27.2453 0.395088 28.1992 1.09835 28.9024C1.80161 29.6057 2.75544 30.0008 3.75 30.0008H6.25C7.24456 30.0008 8.19839 29.6057 8.90165 28.9024C9.60491 28.1992 10 27.2453 10 26.2508V23.7508C10 22.7562 9.60491 21.8024 8.90165 21.0991C8.19839 20.3959 7.24456 20.0008 6.25 20.0008V15.0008C6.25204 13.4617 6.66001 11.9503 7.43276 10.6192C8.2055 9.28817 9.31568 8.18447 10.6512 7.41953C11.0774 8.20075 11.7062 8.85274 12.4714 9.30698C13.2366 9.76122 14.1101 10.0009 15 10.0009C15.8899 10.0009 16.7634 9.76122 17.5286 9.30698C18.2938 8.85274 18.9226 8.20075 19.3488 7.41953C20.6843 8.18447 21.7945 9.28817 22.5672 10.6192C23.34 11.9503 23.748 13.4617 23.75 15.0008V20.0008C22.7554 20.0008 21.8016 20.3959 21.0983 21.0991C20.3951 21.8024 20 22.7562 20 23.7508V26.2508C20 27.2453 20.3951 28.1992 21.0983 28.9024C21.8016 29.6057 22.7554 30.0008 23.75 30.0008H26.25C27.2446 30.0008 28.1984 29.6057 28.9017 28.9024C29.6049 28.1992 30 27.2453 30 26.2508V23.7508C30 22.7562 29.6049 21.8024 28.9017 21.0991C28.1984 20.3959 27.2446 20.0008 26.25 20.0008V20.0008ZM7.5 23.7508V26.2508C7.5 26.5823 7.3683 26.9002 7.13388 27.1347C6.89946 27.3691 6.58152 27.5008 6.25 27.5008H3.75C3.41848 27.5008 3.10054 27.3691 2.86612 27.1347C2.6317 26.9002 2.5 26.5823 2.5 26.2508V23.7508C2.5 23.4193 2.6317 23.1013 2.86612 22.8669C3.10054 22.6325 3.41848 22.5008 3.75 22.5008H6.25C6.58152 22.5008 6.89946 22.6325 7.13388 22.8669C7.3683 23.1013 7.5 23.4193 7.5 23.7508ZM15 7.50078C14.5055 7.50078 14.0222 7.35416 13.6111 7.07946C13.2 6.80475 12.8795 6.41431 12.6903 5.95749C12.5011 5.50068 12.4516 4.99801 12.548 4.51306C12.6445 4.02811 12.8826 3.58265 13.2322 3.23302C13.5819 2.88339 14.0273 2.64528 14.5123 2.54882C14.9972 2.45236 15.4999 2.50187 15.9567 2.69109C16.4135 2.8803 16.804 3.20074 17.0787 3.61186C17.3534 4.02298 17.5 4.50633 17.5 5.00078C17.5 5.66383 17.2366 6.29971 16.7678 6.76855C16.2989 7.23739 15.663 7.50078 15 7.50078ZM27.5 26.2508C27.5 26.5823 27.3683 26.9002 27.1339 27.1347C26.8995 27.3691 26.5815 27.5008 26.25 27.5008H23.75C23.4185 27.5008 23.1005 27.3691 22.8661 27.1347C22.6317 26.9002 22.5 26.5823 22.5 26.2508V23.7508C22.5 23.4193 22.6317 23.1013 22.8661 22.8669C23.1005 22.6325 23.4185 22.5008 23.75 22.5008H26.25C26.5815 22.5008 26.8995 22.6325 27.1339 22.8669C27.3683 23.1013 27.5 23.4193 27.5 23.7508V26.2508Z" fill="black"/>
</g>
<defs>
<clipPath id="clip0_2643_1642">
<rect width="30" height="30" fill="white"/>
</clipPath>
</defs>
</svg>
