<svg width="30" height="30" viewBox="0 0 30 30" fill="none" xmlns="http://www.w3.org/2000/svg">
<g clip-path="url(#clip0_2643_1616)">
<path d="M15 30C12.0333 30 9.13319 29.1203 6.66645 27.4721C4.19972 25.8238 2.27713 23.4812 1.14181 20.7403C0.00649929 17.9994 -0.290551 14.9834 0.288228 12.0737C0.867006 9.16394 2.29562 6.49119 4.39341 4.39341C6.49119 2.29562 9.16394 0.867006 12.0737 0.288228C14.9834 -0.290551 17.9994 0.00649929 20.7403 1.14181C23.4812 2.27713 25.8238 4.19972 27.4721 6.66645C29.1203 9.13319 30 12.0333 30 15C29.9957 18.9769 28.414 22.7897 25.6019 25.6019C22.7897 28.414 18.9769 29.9957 15 30V30ZM15 2.50001C12.5277 2.50001 10.111 3.23312 8.05538 4.60664C5.99976 5.98015 4.39761 7.93239 3.45151 10.2165C2.50542 12.5005 2.25788 15.0139 2.74019 17.4386C3.22251 19.8634 4.41302 22.0907 6.16117 23.8388C7.90933 25.587 10.1366 26.7775 12.5614 27.2598C14.9861 27.7421 17.4995 27.4946 19.7836 26.5485C22.0676 25.6024 24.0199 24.0002 25.3934 21.9446C26.7669 19.889 27.5 17.4723 27.5 15C27.4964 11.6859 26.1782 8.50861 23.8348 6.16519C21.4914 3.82178 18.3141 2.50365 15 2.50001V2.50001ZM22.0825 19.6825C22.3302 19.462 22.4801 19.1522 22.4993 18.8212C22.5185 18.4902 22.4055 18.1652 22.185 17.9175C21.9645 17.6699 21.6547 17.5199 21.3237 17.5007C20.9927 17.4815 20.6677 17.5945 20.42 17.815C18.8919 19.1016 16.9932 19.8671 15 20C13.008 19.8672 11.1103 19.1026 9.58251 17.8175C9.33519 17.5967 9.0103 17.4832 8.6793 17.502C8.34829 17.5207 8.0383 17.6702 7.81751 17.9175C7.59671 18.1648 7.48321 18.4897 7.50196 18.8207C7.52072 19.1517 7.67019 19.4617 7.91751 19.6825C9.90234 21.3782 12.3928 22.3689 15 22.5C17.6072 22.3689 20.0977 21.3782 22.0825 19.6825ZM17.5 12.5C17.5 13.75 18.6188 13.75 20 13.75C21.3813 13.75 22.5 13.75 22.5 12.5C22.5 11.837 22.2366 11.2011 21.7678 10.7322C21.2989 10.2634 20.663 10 20 10C19.337 10 18.7011 10.2634 18.2322 10.7322C17.7634 11.2011 17.5 11.837 17.5 12.5ZM13.75 12.5C13.75 12.1685 13.6183 11.8505 13.3839 11.6161C13.1495 11.3817 12.8315 11.25 12.5 11.25H8.75001C8.41849 11.25 8.10054 11.3817 7.86612 11.6161C7.6317 11.8505 7.50001 12.1685 7.50001 12.5C7.50001 12.8315 7.6317 13.1495 7.86612 13.3839C8.10054 13.6183 8.41849 13.75 8.75001 13.75H12.5C12.8315 13.75 13.1495 13.6183 13.3839 13.3839C13.6183 13.1495 13.75 12.8315 13.75 12.5Z" fill="black"/>
</g>
<defs>
<clipPath id="clip0_2643_1616">
<rect width="30" height="30" fill="white"/>
</clipPath>
</defs>
</svg>
