<svg width="30" height="30" viewBox="0 0 30 30" fill="none" xmlns="http://www.w3.org/2000/svg">
<g clip-path="url(#clip0_2643_1634)">
<path d="M24.7499 5.52478C23.2845 3.53904 21.3072 1.98861 19.0292 1.03907C16.7513 0.0895347 14.2582 -0.223452 11.8162 0.133535C9.44099 0.471222 7.19549 1.42448 5.30275 2.89862C3.41 4.37276 1.9359 6.31647 1.02687 8.53666C0.117839 10.7568 -0.194473 13.1762 0.120957 15.5545C0.436388 17.9327 1.36858 20.1871 2.82493 22.0935C3.44502 22.9482 3.76974 23.9816 3.74993 25.0373V26.251C3.74993 27.2456 4.14502 28.1994 4.84828 28.9027C5.55154 29.6059 6.50537 30.001 7.49993 30.001H16.2499C17.2445 30.001 18.1983 29.6059 18.9016 28.9027C19.6048 28.1994 19.9999 27.2456 19.9999 26.251H20.6174C22.1322 26.2474 23.5944 25.6952 24.7335 24.6967C25.8726 23.6983 26.6116 22.321 26.8137 20.8198L27.0874 18.751H27.4999C27.8302 18.758 28.1584 18.6981 28.4648 18.575C28.7713 18.4518 29.0497 18.2679 29.2833 18.0344C29.5168 17.8008 29.7007 17.5224 29.8239 17.2159C29.947 16.9095 30.0069 16.5813 29.9999 16.251C29.9999 14.476 26.3349 7.48228 24.7499 5.52478ZM25.9912 16.251C25.6881 16.2512 25.3954 16.3614 25.1675 16.5612C24.9397 16.761 24.7921 17.0368 24.7524 17.3373L24.3349 20.4935C24.2135 21.394 23.7701 22.2201 23.0867 22.819C22.4032 23.4178 21.5261 23.7489 20.6174 23.751H18.7499C18.4184 23.751 18.1005 23.8827 17.8661 24.1172C17.6316 24.3516 17.4999 24.6695 17.4999 25.001V26.251C17.4999 26.5826 17.3682 26.9005 17.1338 27.1349C16.8994 27.3693 16.5815 27.501 16.2499 27.501H7.49993C7.16841 27.501 6.85047 27.3693 6.61605 27.1349C6.38163 26.9005 6.24993 26.5826 6.24993 26.251V25.0373C6.26882 23.4325 5.76369 21.8653 4.81118 20.5735C3.62101 19.0145 2.85912 17.1714 2.6011 15.227C2.34308 13.2826 2.59789 11.3046 3.34026 9.4891C4.08263 7.67361 5.28676 6.08375 6.8332 4.87724C8.37963 3.67073 10.2146 2.88949 12.1562 2.61103C12.6863 2.53744 13.2209 2.50068 13.7562 2.50103C15.5126 2.49867 17.2449 2.91031 18.8125 3.70258C20.3801 4.49485 21.7389 5.64544 22.7787 7.06103C24.7529 9.90152 26.3405 12.9919 27.4999 16.251H25.9912ZM20.2499 10.0148C20.1682 9.87232 20.0591 9.74736 19.929 9.64707C19.7989 9.54677 19.6504 9.4731 19.4918 9.43026C19.3332 9.38742 19.1677 9.37626 19.0048 9.39741C18.8419 9.41857 18.6848 9.47162 18.5424 9.55353L17.3149 10.2585C16.6783 9.61326 15.878 9.15349 14.9999 8.92853V7.50103C14.9999 7.16951 14.8682 6.85157 14.6338 6.61715C14.3994 6.38273 14.0815 6.25103 13.7499 6.25103C13.4184 6.25103 13.1005 6.38273 12.8661 6.61715C12.6316 6.85157 12.4999 7.16951 12.4999 7.50103V8.92853C11.6205 9.15286 10.8188 9.61268 10.1812 10.2585L8.95368 9.55353C8.81136 9.47146 8.65427 9.41822 8.49137 9.39685C8.32848 9.37549 8.16297 9.38642 8.0043 9.42902C7.84563 9.47161 7.6969 9.54505 7.56661 9.64513C7.43631 9.7452 7.32701 9.86996 7.24493 10.0123C7.16286 10.1546 7.10962 10.3117 7.08825 10.4746C7.06689 10.6375 7.07782 10.803 7.12041 10.9617C7.16301 11.1203 7.23645 11.2691 7.33653 11.3994C7.4366 11.5297 7.56136 11.639 7.70368 11.721L8.94493 12.4348C8.82066 12.8627 8.75506 13.3055 8.74993 13.751C8.75628 14.1968 8.82314 14.6396 8.94868 15.0673L7.70743 15.781C7.42 15.9468 7.2102 16.2199 7.12416 16.5404C7.03813 16.8609 7.08292 17.2024 7.24868 17.4898C7.41444 17.7772 7.68759 17.987 8.00805 18.0731C8.3285 18.1591 8.67 18.1143 8.95743 17.9485L10.1849 17.2435C10.8216 17.8888 11.6218 18.3486 12.4999 18.5735V20.001C12.4999 20.3326 12.6316 20.6505 12.8661 20.8849C13.1005 21.1193 13.4184 21.251 13.7499 21.251C14.0815 21.251 14.3994 21.1193 14.6338 20.8849C14.8682 20.6505 14.9999 20.3326 14.9999 20.001V18.5735C15.8794 18.3492 16.681 17.8894 17.3187 17.2435L18.5462 17.9485C18.6885 18.0306 18.8456 18.0839 19.0085 18.1052C19.1714 18.1266 19.3369 18.1157 19.4956 18.0731C19.6542 18.0305 19.803 17.957 19.9333 17.8569C20.0636 17.7569 20.1729 17.6321 20.2549 17.4898C20.337 17.3475 20.3903 17.1904 20.4116 17.0275C20.433 16.8646 20.4221 16.6991 20.3795 16.5404C20.3369 16.3817 20.2634 16.233 20.1633 16.1027C20.0633 15.9724 19.9385 15.8631 19.7962 15.781L18.5549 15.0673C18.6792 14.6394 18.7448 14.1966 18.7499 13.751C18.7436 13.3053 18.6767 12.8625 18.5512 12.4348L19.7924 11.721C20.0792 11.5553 20.2884 11.2825 20.3742 10.9626C20.46 10.6427 20.4153 10.3018 20.2499 10.0148ZM13.7499 16.251C13.2555 16.251 12.7721 16.1044 12.361 15.8297C11.9499 15.555 11.6295 15.1646 11.4402 14.7077C11.251 14.2509 11.2015 13.7483 11.298 13.2633C11.3944 12.7784 11.6325 12.3329 11.9822 11.9833C12.3318 11.6336 12.7773 11.3955 13.2622 11.2991C13.7472 11.2026 14.2498 11.2521 14.7066 11.4413C15.1635 11.6306 15.5539 11.951 15.8286 12.3621C16.1033 12.7732 16.2499 13.2566 16.2499 13.751C16.2499 14.4141 15.9865 15.05 15.5177 15.5188C15.0489 15.9876 14.413 16.251 13.7499 16.251Z" fill="black"/>
</g>
<defs>
<clipPath id="clip0_2643_1634">
<rect width="30" height="30" fill="white"/>
</clipPath>
</defs>
</svg>
