<svg width="30" height="30" viewBox="0 0 30 30" fill="none" xmlns="http://www.w3.org/2000/svg">
<g clip-path="url(#clip0_2643_1626)">
<path d="M29.6335 27.8672L22.1722 20.406C24.2055 17.9192 25.2052 14.7461 24.9645 11.5429C24.7239 8.33974 23.2612 5.35161 20.8792 3.1966C18.4972 1.04159 15.378 -0.115437 12.1668 -0.0351468C8.95559 0.045143 5.89811 1.3566 3.62674 3.62796C1.35538 5.89933 0.0439223 8.95681 -0.0363675 12.168C-0.116657 15.3792 1.04037 18.4984 3.19538 20.8804C5.35039 23.2625 8.33852 24.7251 11.5417 24.9658C14.7448 25.2064 17.918 24.2067 20.4047 22.1735L27.866 29.6347C28.1017 29.8624 28.4175 29.9884 28.7452 29.9855C29.073 29.9827 29.3865 29.8512 29.6183 29.6195C29.85 29.3877 29.9815 29.0742 29.9843 28.7465C29.9872 28.4187 29.8612 28.103 29.6335 27.8672ZM12.4997 22.501C10.5219 22.501 8.58852 21.9145 6.94403 20.8156C5.29953 19.7168 4.01781 18.155 3.26093 16.3278C2.50406 14.5005 2.30602 12.4899 2.69187 10.55C3.07773 8.61024 4.03013 6.82841 5.42866 5.42988C6.82719 4.03136 8.60901 3.07895 10.5488 2.6931C12.4886 2.30724 14.4993 2.50528 16.3266 3.26215C18.1538 4.01903 19.7156 5.30075 20.8144 6.94525C21.9132 8.58974 22.4997 10.5231 22.4997 12.5009C22.4968 15.1522 21.4422 17.694 19.5675 19.5687C17.6928 21.4434 15.151 22.498 12.4997 22.501Z" fill="black"/>
</g>
<defs>
<clipPath id="clip0_2643_1626">
<rect width="30" height="30" fill="white"/>
</clipPath>
</defs>
</svg>
